<svg width="231" height="121" viewBox="0 0 231 121" fill="none" xmlns="http://www.w3.org/2000/svg">
<ellipse cx="77" cy="48.577" rx="77" ry="48.577" fill="#C5D7D9"/>
<ellipse rx="38.8666" ry="52.5837" transform="matrix(0.9658 0.259289 -0.283757 0.958896 170.458 60.5)" fill="#7DBBB9"/>
<path d="M56.48 30.1024L59.432 30.0304C60.248 30.0304 61.88 29.9104 64.328 29.6704C66.824 29.3824 68.456 29.1184 69.224 28.8784C69.992 28.5904 70.448 28.4464 70.592 28.4464C71.264 28.4464 71.6 28.8784 71.6 29.7424C71.6 30.9904 70.496 32.1184 68.288 33.1264C66.128 34.1344 63.632 34.6384 60.8 34.6384C59.312 35.5984 57.728 37.5904 56.048 40.6144C54.416 43.5904 52.832 47.8144 51.296 53.2864C49.76 58.7104 48.992 62.5504 48.992 64.8064C48.992 67.0624 49.52 68.6224 50.576 69.4864C51.68 70.3504 53.36 70.9984 55.616 71.4304L54.104 74.0944C52.856 74.1904 51.92 74.2384 51.296 74.2384C48.992 74.2384 47.192 73.4704 45.896 71.9344C44.648 70.3504 44.024 68.5024 44.024 66.3904C44.024 64.2784 44.216 62.5264 44.6 61.1344C47.528 49.4704 49.976 42.2224 51.944 39.3904C52.952 37.9024 54.416 36.2944 56.336 34.5664L49.568 34.7104C46.4 37.7824 43.616 43.1584 41.216 50.8384C38.864 58.4704 36.032 64.3024 32.72 68.3344C29.456 72.3184 25.568 74.3104 21.056 74.3104C19.28 74.3104 17.6 73.7344 16.016 72.5824L17.672 69.8464C18.248 70.1344 18.896 70.3984 19.616 70.6384L20.624 70.7824C20.864 70.8304 21.224 70.8544 21.704 70.8544C24.104 70.8544 26.24 69.7024 28.112 67.3984C30.032 65.0944 32.024 60.7504 34.088 54.3664C36.2 47.9344 37.832 43.6864 38.984 41.6224C40.184 39.5104 42.248 37.1824 45.176 34.6384C45.176 34.6384 41.744 34.5664 34.88 34.4224C24.368 34.4224 19.112 36.7264 19.112 41.3344C19.112 42.5344 19.544 43.5184 20.408 44.2864C21.32 45.0064 22.664 45.3664 24.44 45.3664C26.216 45.3664 28.544 44.5504 31.424 42.9184L32.504 44.7904C31.016 46.3744 29.336 47.6224 27.464 48.5344C25.592 49.4464 23.72 49.9024 21.848 49.9024C19.976 49.9024 18.368 49.2784 17.024 48.0304C15.68 46.7824 15.008 45.2224 15.008 43.3504C15.008 39.5584 17.048 36.2464 21.128 33.4144C25.256 30.5824 30.824 29.1664 37.832 29.1664C37.976 29.1664 39.104 29.2384 41.216 29.3824C48.368 29.8624 53.456 30.1024 56.48 30.1024ZM100.187 67.1104L101.843 68.3344C101.171 69.7744 99.9234 71.1424 98.0994 72.4384C96.3234 73.7344 94.6914 74.3824 93.2034 74.3824C90.3714 74.3824 88.9554 72.8944 88.9554 69.9184C88.9554 68.5264 89.3154 66.8704 90.0354 64.9504L87.3714 67.6864C84.7794 70.3264 82.5234 72.1024 80.6034 73.0144C78.7314 73.9264 76.8834 74.3824 75.0594 74.3824C73.2354 74.3824 71.8434 73.8784 70.8834 72.8704C69.9714 71.8144 69.5154 70.3744 69.5154 68.5504C69.5154 65.1904 70.8114 61.8784 73.4034 58.6144C75.9954 55.3024 79.3074 52.6144 83.3394 50.5504C87.3714 48.4864 91.4034 47.4304 95.4354 47.3824L95.5794 49.7584L92.5554 50.4064C88.1874 51.3664 84.3234 53.2864 80.9634 56.1664C77.6514 59.0464 75.9954 61.9264 75.9954 64.8064C75.9954 67.6384 77.1474 69.0544 79.4514 69.0544C81.6114 69.0544 84.2754 67.5424 87.4434 64.5184C90.6114 61.4944 93.2514 57.9424 95.3634 53.8624L98.3874 55.6624C95.4114 61.6624 93.9234 65.4784 93.9234 67.1104C93.9234 67.7824 94.1394 68.3584 94.5714 68.8384C95.0514 69.2704 95.5074 69.4864 95.9394 69.4864C96.4194 69.4864 96.7314 69.4624 96.8754 69.4144C97.0194 69.3664 97.1634 69.3184 97.3074 69.2704C97.4514 69.1744 97.6194 69.0544 97.8114 68.9104C98.0514 68.7664 98.2434 68.6224 98.3874 68.4784C98.5794 68.3344 98.8674 68.1184 99.2514 67.8304C99.6354 67.5424 99.9474 67.3024 100.187 67.1104ZM113.166 51.7744C112.014 57.2464 111.414 61.2304 111.366 63.7264C111.366 67.1344 112.35 68.8384 114.318 68.8384C116.43 68.8384 118.326 67.9264 120.006 66.1024C121.686 64.2784 122.526 62.1424 122.526 59.6944C122.526 57.2464 121.614 56.0224 119.79 56.0224C119.262 56.0224 118.11 56.3344 116.334 56.9584L115.47 54.7984C118.542 52.6384 120.966 51.5584 122.742 51.5584C126.054 51.5584 127.71 53.2144 127.71 56.5264C127.71 60.4144 126.078 64.3744 122.814 68.4064C119.598 72.3904 116.214 74.3824 112.662 74.3824C108.774 74.3824 106.83 71.5984 106.83 66.0304C106.83 63.3904 107.574 59.0224 109.062 52.9264L103.23 55.0864L103.158 53.3584C103.638 53.0704 105.822 52.2064 109.71 50.7664C111.342 41.1664 113.598 34.4464 116.478 30.6064C119.358 26.7184 123.006 24.7744 127.422 24.7744C129.438 24.7744 131.046 25.4224 132.246 26.7184C133.446 28.0144 134.046 29.6944 134.046 31.7584C134.046 35.8864 132.15 39.7504 128.358 43.3504C124.566 46.9024 119.502 49.7104 113.166 51.7744ZM113.598 49.6144C117.774 47.6944 121.23 45.3904 123.966 42.7024C126.702 40.0144 128.07 37.5664 128.07 35.3584C128.07 34.2064 127.734 33.2704 127.062 32.5504C126.39 31.8304 125.55 31.4704 124.542 31.4704C122.526 31.4704 120.534 32.8864 118.566 35.7184C116.598 38.5504 114.942 43.1824 113.598 49.6144ZM161.579 34.7824C165.515 32.0944 168.203 30.4624 169.643 29.8864C171.083 29.2624 172.763 28.9504 174.683 28.9504C176.651 28.9504 178.163 29.6224 179.219 30.9664C180.275 32.3104 180.803 34.2304 180.803 36.7264C180.803 41.1904 179.363 45.9904 176.483 51.1264C173.603 56.2624 170.003 60.5824 165.683 64.0864C161.363 67.5424 157.283 69.2704 153.443 69.2704C152.483 69.2704 151.379 69.2224 150.131 69.1264C147.779 74.1184 145.643 77.8864 143.723 80.4304C141.803 82.9744 139.883 84.2464 137.963 84.2464C136.763 84.2464 135.827 83.8144 135.155 82.9504C134.483 82.0864 134.147 80.8864 134.147 79.3504C134.147 74.4064 136.427 67.8064 140.987 59.5504C145.547 51.2464 150.563 44.5984 156.035 39.6064C156.803 36.4384 157.187 34.1344 157.187 32.6944C157.187 31.2064 157.139 30.0784 157.043 29.3104L162.227 28.4464C162.227 28.7824 162.011 30.8944 161.579 34.7824ZM145.091 63.9424L147.107 64.9504C150.131 59.0464 152.675 52.4224 154.739 45.0784C150.323 50.5984 146.699 56.2144 143.867 61.9264C141.035 67.6384 139.619 72.0304 139.619 75.1024C139.619 76.0144 139.907 76.4704 140.483 76.4704C140.915 76.4704 141.683 75.5824 142.787 73.8064C143.891 71.9824 144.827 70.1344 145.595 68.2624C144.971 67.9744 144.371 67.5424 143.795 66.9664L145.091 63.9424ZM151.643 65.9584L153.011 66.0304C157.667 66.0304 162.035 63.5824 166.115 58.6864C168.419 55.8544 170.363 52.6144 171.947 48.9664C173.579 45.3184 174.395 42.2224 174.395 39.6784C174.395 38.2864 174.011 37.1824 173.243 36.3664C172.523 35.5504 171.515 35.1424 170.219 35.1424C167.867 35.1424 164.747 36.4384 160.859 39.0304C159.995 45.5104 156.923 54.4864 151.643 65.9584ZM196.694 52.9984C197.942 55.0624 198.566 57.3424 198.566 59.8384C198.566 63.7264 197.222 67.2064 194.534 70.2784C191.846 73.3024 188.678 74.8144 185.03 74.8144C182.246 74.8144 180.062 74.0224 178.478 72.4384C176.942 70.8064 176.174 68.5744 176.174 65.7424C176.174 61.1824 177.95 57.1024 181.502 53.5024C185.054 49.8544 189.038 48.0304 193.454 48.0304C194.27 48.0304 194.846 48.0544 195.182 48.1024L195.398 50.4784C191.558 50.4784 188.366 51.5824 185.822 53.7904C183.278 55.9984 182.006 58.8304 182.006 62.2864C182.006 64.3504 182.51 66.0304 183.518 67.3264C184.526 68.5744 185.99 69.1984 187.91 69.1984C189.878 69.1984 191.438 68.3344 192.59 66.6064C193.742 64.8784 194.318 62.8624 194.318 60.5584C194.318 58.2064 193.862 56.0704 192.95 54.1504L196.694 52.9984Z" fill="#2A5D68"/>
</svg>
