<svg width="231" height="121" viewBox="0 0 231 121" fill="none" xmlns="http://www.w3.org/2000/svg">
<ellipse cx="77" cy="48.577" rx="77" ry="48.577" fill="#C5D7D9"/>
<ellipse rx="38.8666" ry="52.5837" transform="matrix(0.9658 0.259289 -0.283757 0.958896 170.458 60.5)" fill="#7DBBB9"/>
<path d="M56.48 30.1024L59.432 30.0304C60.248 30.0304 61.88 29.9104 64.328 29.6704C66.824 29.3824 68.456 29.1184 69.224 28.8784C69.992 28.5904 70.448 28.4464 70.592 28.4464C71.264 28.4464 71.6 28.8784 71.6 29.7424C71.6 30.9904 70.496 32.1184 68.288 33.1264C66.128 34.1344 63.632 34.6384 60.8 34.6384C59.312 35.5984 57.728 37.5904 56.048 40.6144C54.416 43.5904 52.832 47.8144 51.296 53.2864C49.76 58.7104 48.992 62.5504 48.992 64.8064C48.992 67.0624 49.52 68.6224 50.576 69.4864C51.68 70.3504 53.36 70.9984 55.616 71.4304L54.104 74.0944C52.856 74.1904 51.92 74.2384 51.296 74.2384C48.992 74.2384 47.192 73.4704 45.896 71.9344C44.648 70.3504 44.024 68.5024 44.024 66.3904C44.024 64.2784 44.216 62.5264 44.6 61.1344C47.528 49.4704 49.976 42.2224 51.944 39.3904C52.952 37.9024 54.416 36.2944 56.336 34.5664L49.568 34.7104C46.4 37.7824 43.616 43.1584 41.216 50.8384C38.864 58.4704 36.032 64.3024 32.72 68.3344C29.456 72.3184 25.568 74.3104 21.056 74.3104C19.28 74.3104 17.6 73.7344 16.016 72.5824L17.672 69.8464C18.248 70.1344 18.896 70.3984 19.616 70.6384L20.624 70.7824C20.864 70.8304 21.224 70.8544 21.704 70.8544C24.104 70.8544 26.24 69.7024 28.112 67.3984C30.032 65.0944 32.024 60.7504 34.088 54.3664C36.2 47.9344 37.832 43.6864 38.984 41.6224C40.184 39.5104 42.248 37.1824 45.176 34.6384C45.176 34.6384 41.744 34.5664 34.88 34.4224C24.368 34.4224 19.112 36.7264 19.112 41.3344C19.112 42.5344 19.544 43.5184 20.408 44.2864C21.32 45.0064 22.664 45.3664 24.44 45.3664C26.216 45.3664 28.544 44.5504 31.424 42.9184L32.504 44.7904C31.016 46.3744 29.336 47.6224 27.464 48.5344C25.592 49.4464 23.72 49.9024 21.848 49.9024C19.976 49.9024 18.368 49.2784 17.024 48.0304C15.68 46.7824 15.008 45.2224 15.008 43.3504C15.008 39.5584 17.048 36.2464 21.128 33.4144C25.256 30.5824 30.824 29.1664 37.832 29.1664C37.976 29.1664 39.104 29.2384 41.216 29.3824C48.368 29.8624 53.456 30.1024 56.48 30.1024ZM100.187 67.1104L101.843 68.3344C101.171 69.7744 99.9234 71.1424 98.0994 72.4384C96.3234 73.7344 94.6914 74.3824 93.2034 74.3824C90.3714 74.3824 88.9554 72.8944 88.9554 69.9184C88.9554 68.5264 89.3154 66.8704 90.0354 64.9504L87.3714 67.6864C84.7794 70.3264 82.5234 72.1024 80.6034 73.0144C78.7314 73.9264 76.8834 74.3824 75.0594 74.3824C73.2354 74.3824 71.8434 73.8784 70.8834 72.8704C69.9714 71.8144 69.5154 70.3744 69.5154 68.5504C69.5154 65.1904 70.8114 61.8784 73.4034 58.6144C75.9954 55.3024 79.3074 52.6144 83.3394 50.5504C87.3714 48.4864 91.4034 47.4304 95.4354 47.3824L95.5794 49.7584L92.5554 50.4064C88.1874 51.3664 84.3234 53.2864 80.9634 56.1664C77.6514 59.0464 75.9954 61.9264 75.9954 64.8064C75.9954 67.6384 77.1474 69.0544 79.4514 69.0544C81.6114 69.0544 84.2754 67.5424 87.4434 64.5184C90.6114 61.4944 93.2514 57.9424 95.3634 53.8624L98.3874 55.6624C95.4114 61.6624 93.9234 65.4784 93.9234 67.1104C93.9234 67.7824 94.1394 68.3584 94.5714 68.8384C95.0514 69.2704 95.5074 69.4864 95.9394 69.4864C96.4194 69.4864 96.7314 69.4624 96.8754 69.4144C97.0194 69.3664 97.1634 69.3184 97.3074 69.2704C97.4514 69.1744 97.6194 69.0544 97.8114 68.9104C98.0514 68.7664 98.2434 68.6224 98.3874 68.4784C98.5794 68.3344 98.8674 68.1184 99.2514 67.8304C99.6354 67.5424 99.9474 67.3024 100.187 67.1104ZM113.166 51.7744C112.014 57.2464 111.414 61.2304 111.366 63.7264C111.366 67.1344 112.35 68.8384 114.318 68.8384C116.43 68.8384 118.326 67.9264 120.006 66.1024C121.686 64.2784 122.526 62.1424 122.526 59.6944C122.526 57.2464 121.614 56.0224 119.79 56.0224C119.262 56.0224 118.11 56.3344 116.334 56.9584L115.47 54.7984C118.542 52.6384 120.966 51.5584 122.742 51.5584C126.054 51.5584 127.71 53.2144 127.71 56.5264C127.71 60.4144 126.078 64.3744 122.814 68.4064C119.598 72.3904 116.214 74.3824 112.662 74.3824C108.774 74.3824 106.83 71.5984 106.83 66.0304C106.83 63.3904 107.574 59.0224 109.062 52.9264L103.23 55.0864L103.158 53.3584C103.638 53.0704 105.822 52.2064 109.71 50.7664C111.342 41.1664 113.598 34.4464 116.478 30.6064C119.358 26.7184 123.006 24.7744 127.422 24.7744C129.438 24.7744 131.046 25.4224 132.246 26.7184C133.446 28.0144 134.046 29.6944 134.046 31.7584C134.046 35.8864 132.15 39.7504 128.358 43.3504C124.566 46.9024 119.502 49.7104 113.166 51.7744ZM113.598 49.6144C117.774 47.6944 121.23 45.3904 123.966 42.7024C126.702 40.0144 128.07 37.5664 128.07 35.3584C128.07 34.2064 127.734 33.2704 127.062 32.5504C126.39 31.8304 125.55 31.4704 124.542 31.4704C122.526 31.4704 120.534 32.8864 118.566 35.7184C116.598 38.5504 114.942 43.1824 113.598 49.6144ZM161.579 34.7824C165.515 32.0944 168.203 30.4624 169.643 29.8864C171.083 29.2624 172.763 28.9504 174.683 28.9504C176.651 28.9504 178.163 29.6224 179.219 30.9664C180.275 32.3104 180.803 34.2304 180.803 36.7264C180.803 41.1904 179.363 45.9904 176.483 51.1264C173.603 56.2624 170.003 60.5824 165.683 64.0864C161.363 67.5424 157.283 69.2704 153.443 69.2704C152.483 69.2704 151.379 69.2224 150.131 69.1264C147.779 74.1184 145.643 77.8864 143.723 80.4304C141.803 82.9744 139.883 84.2464 137.963 84.2464C136.763 84.2464 135.827 83.8144 135.155 82.9504C134.483 82.0864 134.147 80.8864 134.147 79.3504C134.147 74.4064 136.427 67.8064 140.987 59.5504C145.547 51.2464 150.563 44.5984 156.035 39.6064C156.803 36.4384 157.187 34.1344 157.187 32.6944C157.187 31.2064 157.139 30.0784 157.043 29.3104L162.227 28.4464C162.227 28.7824 162.011 30.8944 161.579 34.7824ZM145.091 63.9424L147.107 64.9504C150.131 59.0464 152.675 52.4224 154.739 45.0784C150.323 50.5984 146.699 56.2144 143.867 61.9264C141.035 67.6384 139.619 72.0304 139.619 75.1024C139.619 76.0144 139.907 76.4704 140.483 76.4704C140.915 76.4704 141.683 75.5824 142.787 73.8064C143.891 71.9824 144.827 70.1344 145.595 68.2624C144.971 67.9744 144.371 67.5424 143.795 66.9664L145.091 63.9424ZM151.643 65.9584L153.011 66.0304C157.667 66.0304 162.035 63.5824 166.115 58.6864C168.419 55.8544 170.363 52.6144 171.947 48.9664C173.579 45.3184 174.395 42.2224 174.395 39.6784C174.395 38.2864 174.011 37.1824 173.243 36.3664C172.523 35.5504 171.515 35.1424 170.219 35.1424C167.867 35.1424 164.747 36.4384 160.859 39.0304C159.995 45.5104 156.923 54.4864 151.643 65.9584ZM196.694 52.9984C197.942 55.0624 198.566 57.3424 198.566 59.8384C198.566 63.7264 197.222 67.2064 194.534 70.2784C191.846 73.3024 188.678 74.8144 185.03 74.8144C182.246 74.8144 180.062 74.0224 178.478 72.4384C176.942 70.8064 176.174 68.5744 176.174 65.7424C176.174 61.1824 177.95 57.1024 181.502 53.5024C185.054 49.8544 189.038 48.0304 193.454 48.0304C194.27 48.0304 194.846 48.0544 195.182 48.1024L195.398 50.4784C191.558 50.4784 188.366 51.5824 185.822 53.7904C183.278 55.9984 182.006 58.8304 182.006 62.2864C182.006 64.3504 182.51 66.0304 183.518 67.3264C184.526 68.5744 185.99 69.1984 187.91 69.1984C189.878 69.1984 191.438 68.3344 192.59 66.6064C193.742 64.8784 194.318 62.8624 194.318 60.5584C194.318 58.2064 193.862 56.0704 192.95 54.1504L196.694 52.9984Z" fill="#2A5D68"/>
<path d="M56.48 30.1024V30.6025L56.4922 30.6022L56.48 30.1024ZM59.432 30.0304V29.5302L59.4198 29.5305L59.432 30.0304ZM64.328 29.6704L64.3768 30.1681L64.3853 30.1671L64.328 29.6704ZM69.224 28.8784L69.3731 29.3556L69.3865 29.3515L69.3996 29.3465L69.224 28.8784ZM68.288 33.1264L68.0803 32.6715L68.0766 32.6733L68.288 33.1264ZM60.8 34.6384V34.1384H60.6527L60.5289 34.2182L60.8 34.6384ZM56.048 40.6144L55.6109 40.3716L55.6096 40.374L56.048 40.6144ZM51.296 53.2864L51.7771 53.4226L51.7774 53.4215L51.296 53.2864ZM50.576 69.4864L50.2593 69.8735L50.2678 69.8801L50.576 69.4864ZM55.616 71.4304L56.0508 71.6772L56.3952 71.0705L55.71 70.9393L55.616 71.4304ZM54.104 74.0944L54.1424 74.5929L54.4076 74.5725L54.5388 74.3412L54.104 74.0944ZM45.896 71.9344L45.5033 72.2438L45.5084 72.2504L45.5139 72.2568L45.896 71.9344ZM44.6 61.1344L45.0821 61.2674L45.085 61.2561L44.6 61.1344ZM51.944 39.3904L52.3546 39.6757L52.358 39.6708L51.944 39.3904ZM56.336 34.5664L56.6705 34.938L57.6707 34.0379L56.3254 34.0665L56.336 34.5664ZM49.568 34.7104L49.5574 34.2105L49.361 34.2147L49.2199 34.3514L49.568 34.7104ZM41.216 50.8384L40.7388 50.6892L40.7382 50.6911L41.216 50.8384ZM32.72 68.3344L32.3336 68.017L32.3332 68.0175L32.72 68.3344ZM16.016 72.5824L15.5883 72.3235L15.3504 72.7165L15.7219 72.9868L16.016 72.5824ZM17.672 69.8464L17.8956 69.3992L17.4831 69.1929L17.2443 69.5875L17.672 69.8464ZM19.616 70.6384L19.4579 71.1127L19.5007 71.127L19.5453 71.1334L19.616 70.6384ZM20.624 70.7824L20.7221 70.2921L20.7084 70.2894L20.6947 70.2874L20.624 70.7824ZM28.112 67.3984L27.7279 67.0783L27.7239 67.0831L28.112 67.3984ZM34.088 54.3664L33.6129 54.2104L33.6122 54.2126L34.088 54.3664ZM38.984 41.6224L38.5493 41.3754L38.5474 41.3787L38.984 41.6224ZM45.176 34.6384L45.5039 35.0158L46.4824 34.1657L45.1865 34.1385L45.176 34.6384ZM34.88 34.4224L34.8905 33.9224H34.88V34.4224ZM20.408 44.2864L20.0758 44.6601L20.0867 44.6698L20.0982 44.6788L20.408 44.2864ZM31.424 42.9184L31.8571 42.6685L31.6092 42.2388L31.1775 42.4834L31.424 42.9184ZM32.504 44.7904L32.8684 45.1327L33.1226 44.8621L32.9371 44.5405L32.504 44.7904ZM27.464 48.5344L27.245 48.0849H27.245L27.464 48.5344ZM17.024 48.0304L17.3642 47.664H17.3642L17.024 48.0304ZM21.128 33.4144L20.8451 33.0021L20.8429 33.0036L21.128 33.4144ZM41.216 29.3824L41.182 29.8812L41.1825 29.8813L41.216 29.3824ZM56.4922 30.6022L59.4442 30.5302L59.4198 29.5305L56.4678 29.6025L56.4922 30.6022ZM59.432 30.5304C60.2766 30.5304 61.933 30.4076 64.3768 30.168L64.2792 29.1728C61.827 29.4132 60.2194 29.5304 59.432 29.5304V30.5304ZM64.3853 30.1671C66.8719 29.8802 68.5522 29.6122 69.3731 29.3556L69.0749 28.4011C68.3598 28.6246 66.7761 28.8846 64.2707 29.1737L64.3853 30.1671ZM69.3996 29.3465C69.7802 29.2038 70.0768 29.0993 70.2926 29.0312C70.4007 28.997 70.483 28.9738 70.5422 28.9596C70.6121 28.9428 70.6189 28.9464 70.592 28.9464V27.9464C70.4931 27.9464 70.3889 27.968 70.3088 27.9872C70.218 28.009 70.1113 28.0398 69.9914 28.0776C69.7512 28.1535 69.4358 28.265 69.0484 28.4102L69.3996 29.3465ZM70.592 28.9464C70.8127 28.9464 70.9017 29.0109 70.9533 29.0774C71.0236 29.1677 71.1 29.3614 71.1 29.7424H72.1C72.1 29.2594 72.0084 28.8051 71.7427 28.4634C71.4583 28.0978 71.0433 27.9464 70.592 27.9464V28.9464ZM71.1 29.7424C71.1 30.2034 70.9006 30.6782 70.4147 31.1747C69.9224 31.6776 69.1553 32.1808 68.0804 32.6715L68.4956 33.5812C69.6287 33.064 70.5176 32.4991 71.1293 31.8741C71.7474 31.2426 72.1 30.5294 72.1 29.7424H71.1ZM68.0766 32.6733C65.9941 33.6451 63.5725 34.1384 60.8 34.1384V35.1384C63.6915 35.1384 66.2619 34.6236 68.4994 33.5795L68.0766 32.6733ZM60.5289 34.2182C58.9328 35.248 57.2996 37.3319 55.6109 40.3716L56.4851 40.8572C58.1564 37.8489 59.6912 35.9488 61.0711 35.0585L60.5289 34.2182ZM55.6096 40.374C53.9512 43.3982 52.355 47.6636 50.8146 53.1513L51.7774 53.4215C53.309 47.9651 54.8808 43.7826 56.4864 40.8548L55.6096 40.374ZM50.8149 53.1502C49.2796 58.5718 48.492 62.4729 48.492 64.8064H49.492C49.492 62.6279 50.2404 58.849 51.7771 53.4226L50.8149 53.1502ZM48.492 64.8064C48.492 67.1163 49.0293 68.8669 50.2594 69.8734L50.8926 69.0994C50.0107 68.3779 49.492 67.0084 49.492 64.8064H48.492ZM50.2678 69.8801C51.4622 70.8149 53.232 71.483 55.522 71.9215L55.71 70.9393C53.488 70.5138 51.8978 69.8859 50.8842 69.0926L50.2678 69.8801ZM55.1812 71.1836L53.6692 73.8476L54.5388 74.3412L56.0508 71.6772L55.1812 71.1836ZM54.0657 73.5959C52.8204 73.6916 51.9001 73.7384 51.296 73.7384V74.7384C51.9399 74.7384 52.8916 74.6891 54.1424 74.5929L54.0657 73.5959ZM51.296 73.7384C49.1152 73.7384 47.4646 73.0182 46.2781 71.6119L45.5139 72.2568C46.9194 73.9226 48.8688 74.7384 51.296 74.7384V73.7384ZM46.2887 71.625C45.1137 70.1335 44.524 68.3958 44.524 66.3904H43.524C43.524 68.6089 44.1823 70.5673 45.5033 72.2438L46.2887 71.625ZM44.524 66.3904C44.524 64.3046 44.7141 62.6011 45.082 61.2673L44.118 61.0014C43.7179 62.4517 43.524 64.2522 43.524 66.3904H44.524ZM45.085 61.2561C46.5473 55.4306 47.8876 50.7168 49.1057 47.1104C50.3284 43.4903 51.4141 41.0291 52.3546 39.6757L51.5334 39.1051C50.5059 40.5837 49.3836 43.1625 48.1583 46.7904C46.9284 50.432 45.5807 55.1741 44.115 61.0126L45.085 61.2561ZM52.358 39.6708C53.3358 38.2274 54.7687 36.6497 56.6705 34.938L56.0015 34.1947C54.0633 35.9391 52.5682 37.5774 51.53 39.11L52.358 39.6708ZM56.3254 34.0665L49.5574 34.2105L49.5786 35.2103L56.3466 35.0663L56.3254 34.0665ZM49.2199 34.3514C45.9609 37.5118 43.1463 42.9852 40.7388 50.6892L41.6932 50.9875C44.0857 43.3315 46.8392 38.053 49.9161 35.0693L49.2199 34.3514ZM40.7382 50.6911C38.3962 58.2906 35.5885 64.0546 32.3336 68.017L33.1064 68.6518C36.4755 64.5502 39.3318 58.6502 41.6938 50.9856L40.7382 50.6911ZM32.3332 68.0175C29.1491 71.904 25.3958 73.8104 21.056 73.8104V74.8104C25.7402 74.8104 29.7629 72.7327 33.1068 68.6513L32.3332 68.0175ZM21.056 73.8104C19.3965 73.8104 17.8179 73.2746 16.3101 72.178L15.7219 72.9868C17.3821 74.1942 19.1635 74.8104 21.056 74.8104V73.8104ZM16.4438 72.8413L18.0998 70.1053L17.2443 69.5875L15.5883 72.3235L16.4438 72.8413ZM17.4484 70.2936C18.0489 70.5938 18.7193 70.8665 19.4579 71.1127L19.7741 70.164C19.0727 69.9302 18.4471 69.6749 17.8956 69.3992L17.4484 70.2936ZM19.5453 71.1334L20.5533 71.2774L20.6947 70.2874L19.6867 70.1434L19.5453 71.1334ZM20.5259 71.2727C20.8159 71.3307 21.2161 71.3544 21.704 71.3544V70.3544C21.2319 70.3544 20.9121 70.3301 20.7221 70.2921L20.5259 71.2727ZM21.704 71.3544C24.2898 71.3544 26.5578 70.1042 28.5001 67.7137L27.7239 67.0831C25.9222 69.3006 23.9182 70.3544 21.704 70.3544V71.3544ZM28.4961 67.7185C30.4829 65.3343 32.4984 60.9083 34.5638 54.5202L33.6122 54.2126C31.5496 60.5925 29.5811 64.8545 27.7279 67.0783L28.4961 67.7185ZM34.563 54.5224C36.6771 48.0842 38.2957 43.8816 39.4206 41.8661L38.5474 41.3787C37.3683 43.4912 35.7229 47.7846 33.613 54.2104L34.563 54.5224ZM39.4187 41.8694C40.5792 39.827 42.5963 37.5421 45.5039 35.0158L44.8481 34.2609C41.8997 36.8226 39.7888 39.1937 38.5493 41.3754L39.4187 41.8694ZM45.176 34.6384C45.1865 34.1385 45.1865 34.1385 45.1864 34.1385C45.1864 34.1385 45.1864 34.1385 45.1863 34.1385C45.1863 34.1385 45.1862 34.1385 45.1861 34.1385C45.1861 34.1385 45.186 34.1385 45.1859 34.1385C45.1858 34.1385 45.1856 34.1385 45.1855 34.1385C45.1854 34.1385 45.1852 34.1385 45.1851 34.1385C45.1849 34.1385 45.1847 34.1385 45.1846 34.1385C45.1844 34.1384 45.1842 34.1384 45.184 34.1384C45.1838 34.1384 45.1835 34.1384 45.1833 34.1384C45.1831 34.1384 45.1828 34.1384 45.1826 34.1384C45.1823 34.1384 45.182 34.1384 45.1817 34.1384C45.1814 34.1384 45.1811 34.1384 45.1808 34.1384C45.1805 34.1384 45.1802 34.1384 45.1799 34.1384C45.1795 34.1383 45.1792 34.1383 45.1788 34.1383C45.1784 34.1383 45.178 34.1383 45.1777 34.1383C45.1773 34.1383 45.1769 34.1383 45.1764 34.1383C45.176 34.1383 45.1756 34.1383 45.1751 34.1383C45.1747 34.1382 45.1742 34.1382 45.1738 34.1382C45.1733 34.1382 45.1728 34.1382 45.1723 34.1382C45.1718 34.1382 45.1713 34.1382 45.1708 34.1382C45.1703 34.1382 45.1697 34.1381 45.1692 34.1381C45.1686 34.1381 45.1681 34.1381 45.1675 34.1381C45.1669 34.1381 45.1663 34.1381 45.1657 34.1381C45.1651 34.138 45.1645 34.138 45.1639 34.138C45.1632 34.138 45.1626 34.138 45.1619 34.138C45.1613 34.138 45.1606 34.1379 45.1599 34.1379C45.1593 34.1379 45.1586 34.1379 45.1579 34.1379C45.1572 34.1379 45.1564 34.1379 45.1557 34.1378C45.155 34.1378 45.1542 34.1378 45.1535 34.1378C45.1527 34.1378 45.1519 34.1378 45.1511 34.1378C45.1504 34.1377 45.1496 34.1377 45.1487 34.1377C45.1479 34.1377 45.1471 34.1377 45.1463 34.1376C45.1454 34.1376 45.1446 34.1376 45.1437 34.1376C45.1429 34.1376 45.142 34.1376 45.1411 34.1375C45.1402 34.1375 45.1393 34.1375 45.1384 34.1375C45.1375 34.1375 45.1365 34.1374 45.1356 34.1374C45.1346 34.1374 45.1337 34.1374 45.1327 34.1374C45.1318 34.1373 45.1308 34.1373 45.1298 34.1373C45.1288 34.1373 45.1278 34.1373 45.1268 34.1372C45.1257 34.1372 45.1247 34.1372 45.1236 34.1372C45.1226 34.1372 45.1215 34.1371 45.1205 34.1371C45.1194 34.1371 45.1183 34.1371 45.1172 34.137C45.1161 34.137 45.115 34.137 45.1139 34.137C45.1127 34.1369 45.1116 34.1369 45.1105 34.1369C45.1093 34.1369 45.1081 34.1368 45.107 34.1368C45.1058 34.1368 45.1046 34.1368 45.1034 34.1367C45.1022 34.1367 45.101 34.1367 45.0997 34.1367C45.0985 34.1366 45.0973 34.1366 45.096 34.1366C45.0947 34.1366 45.0935 34.1365 45.0922 34.1365C45.0909 34.1365 45.0896 34.1365 45.0883 34.1364C45.087 34.1364 45.0857 34.1364 45.0843 34.1363C45.083 34.1363 45.0816 34.1363 45.0803 34.1363C45.0789 34.1362 45.0776 34.1362 45.0762 34.1362C45.0748 34.1361 45.0734 34.1361 45.072 34.1361C45.0705 34.1361 45.0691 34.136 45.0677 34.136C45.0662 34.136 45.0648 34.1359 45.0633 34.1359C45.0619 34.1359 45.0604 34.1358 45.0589 34.1358C45.0574 34.1358 45.0559 34.1358 45.0544 34.1357C45.0528 34.1357 45.0513 34.1357 45.0498 34.1356C45.0482 34.1356 45.0467 34.1356 45.0451 34.1355C45.0435 34.1355 45.0419 34.1355 45.0403 34.1354C45.0387 34.1354 45.0371 34.1354 45.0355 34.1353C45.0339 34.1353 45.0323 34.1353 45.0306 34.1352C45.029 34.1352 45.0273 34.1352 45.0256 34.1351C45.0239 34.1351 45.0222 34.135 45.0205 34.135C45.0188 34.135 45.0171 34.1349 45.0154 34.1349C45.0137 34.1349 45.0119 34.1348 45.0102 34.1348C45.0084 34.1348 45.0067 34.1347 45.0049 34.1347C45.0031 34.1346 45.0013 34.1346 44.9995 34.1346C44.9977 34.1345 44.9959 34.1345 44.994 34.1345C44.9922 34.1344 44.9904 34.1344 44.9885 34.1343C44.9866 34.1343 44.9848 34.1343 44.9829 34.1342C44.981 34.1342 44.9791 34.1341 44.9772 34.1341C44.9753 34.1341 44.9734 34.134 44.9714 34.134C44.9695 34.1339 44.9675 34.1339 44.9656 34.1339C44.9636 34.1338 44.9616 34.1338 44.9596 34.1337C44.9576 34.1337 44.9556 34.1336 44.9536 34.1336C44.9516 34.1336 44.9496 34.1335 44.9475 34.1335C44.9455 34.1334 44.9434 34.1334 44.9414 34.1334C44.9393 34.1333 44.9372 34.1333 44.9351 34.1332C44.933 34.1332 44.9309 34.1331 44.9288 34.1331C44.9267 34.133 44.9245 34.133 44.9224 34.133C44.9202 34.1329 44.9181 34.1329 44.9159 34.1328C44.9137 34.1328 44.9116 34.1327 44.9094 34.1327C44.9072 34.1326 44.9049 34.1326 44.9027 34.1325C44.9005 34.1325 44.8983 34.1324 44.896 34.1324C44.8938 34.1324 44.8915 34.1323 44.8892 34.1323C44.8869 34.1322 44.8846 34.1322 44.8823 34.1321C44.88 34.1321 44.8777 34.132 44.8754 34.132C44.8731 34.1319 44.8707 34.1319 44.8684 34.1318C44.866 34.1318 44.8636 34.1317 44.8612 34.1317C44.8589 34.1316 44.8565 34.1316 44.8541 34.1315C44.8516 34.1315 44.8492 34.1314 44.8468 34.1314C44.8444 34.1313 44.8419 34.1313 44.8394 34.1312C44.837 34.1312 44.8345 34.1311 44.832 34.1311C44.8295 34.131 44.827 34.131 44.8245 34.1309C44.822 34.1308 44.8195 34.1308 44.8169 34.1307C44.8144 34.1307 44.8118 34.1306 44.8093 34.1306C44.8067 34.1305 44.8041 34.1305 44.8015 34.1304C44.799 34.1304 44.7963 34.1303 44.7937 34.1303C44.7911 34.1302 44.7885 34.1301 44.7858 34.1301C44.7832 34.13 44.7805 34.13 44.7779 34.1299C44.7752 34.1299 44.7725 34.1298 44.7698 34.1298C44.7671 34.1297 44.7644 34.1296 44.7617 34.1296C44.759 34.1295 44.7562 34.1295 44.7535 34.1294C44.7507 34.1294 44.748 34.1293 44.7452 34.1292C44.7424 34.1292 44.7396 34.1291 44.7368 34.1291C44.734 34.129 44.7312 34.1289 44.7284 34.1289C44.7255 34.1288 44.7227 34.1288 44.7198 34.1287C44.717 34.1286 44.7141 34.1286 44.7112 34.1285C44.7084 34.1285 44.7055 34.1284 44.7026 34.1283C44.6997 34.1283 44.6967 34.1282 44.6938 34.1282C44.6909 34.1281 44.6879 34.128 44.685 34.128C44.682 34.1279 44.679 34.1278 44.6761 34.1278C44.6731 34.1277 44.6701 34.1277 44.6671 34.1276C44.6641 34.1275 44.661 34.1275 44.658 34.1274C44.655 34.1273 44.6519 34.1273 44.6488 34.1272C44.6458 34.1271 44.6427 34.1271 44.6396 34.127C44.6365 34.127 44.6334 34.1269 44.6303 34.1268C44.6272 34.1268 44.6241 34.1267 44.6209 34.1266C44.6178 34.1266 44.6146 34.1265 44.6114 34.1264C44.6083 34.1264 44.6051 34.1263 44.6019 34.1262C44.5987 34.1262 44.5955 34.1261 44.5923 34.126C44.5891 34.126 44.5858 34.1259 44.5826 34.1258C44.5793 34.1258 44.5761 34.1257 44.5728 34.1256C44.5695 34.1255 44.5662 34.1255 44.5629 34.1254C44.5596 34.1253 44.5563 34.1253 44.553 34.1252C44.5497 34.1251 44.5463 34.1251 44.543 34.125C44.5396 34.1249 44.5363 34.1249 44.5329 34.1248C44.5295 34.1247 44.5261 34.1246 44.5227 34.1246C44.5193 34.1245 44.5159 34.1244 44.5125 34.1244C44.509 34.1243 44.5056 34.1242 44.5021 34.1241C44.4987 34.1241 44.4952 34.124 44.4917 34.1239C44.4883 34.1238 44.4848 34.1238 44.4812 34.1237C44.4777 34.1236 44.4742 34.1235 44.4707 34.1235C44.4671 34.1234 44.4636 34.1233 44.46 34.1233C44.4565 34.1232 44.4529 34.1231 44.4493 34.123C44.4457 34.123 44.4421 34.1229 44.4385 34.1228C44.4349 34.1227 44.4313 34.1226 44.4276 34.1226C44.424 34.1225 44.4203 34.1224 44.4167 34.1223C44.413 34.1223 44.4093 34.1222 44.4056 34.1221C44.4019 34.122 44.3982 34.122 44.3945 34.1219C44.3908 34.1218 44.3871 34.1217 44.3833 34.1216C44.3796 34.1216 44.3758 34.1215 44.3721 34.1214C44.3683 34.1213 44.3645 34.1212 44.3607 34.1212C44.3569 34.1211 44.3531 34.121 44.3493 34.1209C44.3455 34.1208 44.3416 34.1208 44.3378 34.1207C44.3339 34.1206 44.3301 34.1205 44.3262 34.1204C44.3223 34.1204 44.3184 34.1203 44.3145 34.1202C44.3106 34.1201 44.3067 34.12 44.3028 34.12C44.2988 34.1199 44.2949 34.1198 44.291 34.1197C44.287 34.1196 44.283 34.1195 44.2791 34.1195C44.2751 34.1194 44.2711 34.1193 44.2671 34.1192C44.2631 34.1191 44.259 34.119 44.255 34.1189C44.251 34.1189 44.2469 34.1188 44.2429 34.1187C44.2388 34.1186 44.2348 34.1185 44.2307 34.1184C44.2266 34.1184 44.2225 34.1183 44.2184 34.1182C44.2143 34.1181 44.2101 34.118 44.206 34.1179C44.2019 34.1178 44.1977 34.1177 44.1936 34.1177C44.1894 34.1176 44.1852 34.1175 44.181 34.1174C44.1768 34.1173 44.1726 34.1172 44.1684 34.1171C44.1642 34.117 44.16 34.117 44.1557 34.1169C44.1515 34.1168 44.1472 34.1167 44.143 34.1166C44.1387 34.1165 44.1344 34.1164 44.1301 34.1163C44.1258 34.1162 44.1215 34.1161 44.1172 34.1161C44.1129 34.116 44.1085 34.1159 44.1042 34.1158C44.0998 34.1157 44.0955 34.1156 44.0911 34.1155C44.0867 34.1154 44.0824 34.1153 44.078 34.1152C44.0736 34.1151 44.0691 34.1151 44.0647 34.115C44.0603 34.1149 44.0559 34.1148 44.0514 34.1147C44.047 34.1146 44.0425 34.1145 44.038 34.1144C44.0335 34.1143 44.029 34.1142 44.0245 34.1141C44.02 34.114 44.0155 34.1139 44.011 34.1138C44.0065 34.1137 44.0019 34.1136 43.9974 34.1135C43.9928 34.1134 43.9882 34.1134 43.9837 34.1133C43.9791 34.1132 43.9745 34.1131 43.9699 34.113C43.9653 34.1129 43.9606 34.1128 43.956 34.1127C43.9514 34.1126 43.9467 34.1125 43.9421 34.1124C43.9374 34.1123 43.9327 34.1122 43.928 34.1121C43.9234 34.112 43.9187 34.1119 43.9139 34.1118C43.9092 34.1117 43.9045 34.1116 43.8998 34.1115C43.895 34.1114 43.8903 34.1113 43.8855 34.1112C43.8807 34.1111 43.876 34.111 43.8712 34.1109C43.8664 34.1108 43.8616 34.1107 43.8568 34.1106C43.8519 34.1105 43.8471 34.1104 43.8423 34.1103C43.8374 34.1102 43.8326 34.1101 43.8277 34.11C43.8228 34.1099 43.8179 34.1098 43.813 34.1097C43.8081 34.1096 43.8032 34.1095 43.7983 34.1094C43.7934 34.1093 43.7885 34.1092 43.7835 34.1091C43.7786 34.109 43.7736 34.1089 43.7686 34.1087C43.7636 34.1086 43.7587 34.1085 43.7537 34.1084C43.7487 34.1083 43.7436 34.1082 43.7386 34.1081C43.7336 34.108 43.7285 34.1079 43.7235 34.1078C43.7184 34.1077 43.7134 34.1076 43.7083 34.1075C43.7032 34.1074 43.6981 34.1073 43.693 34.1072C43.6879 34.1071 43.6828 34.1069 43.6777 34.1068C43.6725 34.1067 43.6674 34.1066 43.6622 34.1065C43.6571 34.1064 43.6519 34.1063 43.6467 34.1062C43.6415 34.1061 43.6363 34.106 43.6311 34.1059C43.6259 34.1058 43.6207 34.1056 43.6154 34.1055C43.6102 34.1054 43.605 34.1053 43.5997 34.1052C43.5944 34.1051 43.5892 34.105 43.5839 34.1049C43.5786 34.1048 43.5733 34.1046 43.568 34.1045C43.5626 34.1044 43.5573 34.1043 43.552 34.1042C43.5466 34.1041 43.5413 34.104 43.5359 34.1039C43.5305 34.1038 43.5252 34.1036 43.5198 34.1035C43.5144 34.1034 43.509 34.1033 43.5035 34.1032C43.4981 34.1031 43.4927 34.103 43.4872 34.1028C43.4818 34.1027 43.4763 34.1026 43.4709 34.1025C43.4654 34.1024 43.4599 34.1023 43.4544 34.1022C43.4489 34.102 43.4434 34.1019 43.4379 34.1018C43.4324 34.1017 43.4268 34.1016 43.4213 34.1015C43.4157 34.1013 43.4101 34.1012 43.4046 34.1011C43.399 34.101 43.3934 34.1009 43.3878 34.1008C43.3822 34.1006 43.3766 34.1005 43.371 34.1004C43.3653 34.1003 43.3597 34.1002 43.354 34.1C43.3484 34.0999 43.3427 34.0998 43.337 34.0997C43.3313 34.0996 43.3256 34.0995 43.3199 34.0993C43.3142 34.0992 43.3085 34.0991 43.3028 34.099C43.297 34.0989 43.2913 34.0987 43.2855 34.0986C43.2798 34.0985 43.274 34.0984 43.2682 34.0982C43.2624 34.0981 43.2566 34.098 43.2508 34.0979C43.245 34.0978 43.2392 34.0976 43.2333 34.0975C43.2275 34.0974 43.2216 34.0973 43.2158 34.0971C43.2099 34.097 43.204 34.0969 43.1981 34.0968C43.1922 34.0967 43.1863 34.0965 43.1804 34.0964C43.1745 34.0963 43.1686 34.0962 43.1626 34.096C43.1567 34.0959 43.1507 34.0958 43.1448 34.0957C43.1388 34.0955 43.1328 34.0954 43.1268 34.0953C43.1208 34.0952 43.1148 34.095 43.1088 34.0949C43.1028 34.0948 43.0967 34.0947 43.0907 34.0945C43.0846 34.0944 43.0786 34.0943 43.0725 34.0941C43.0664 34.094 43.0603 34.0939 43.0542 34.0938C43.0481 34.0936 43.042 34.0935 43.0359 34.0934C43.0298 34.0932 43.0236 34.0931 43.0175 34.093C43.0113 34.0929 43.0051 34.0927 42.999 34.0926C42.9928 34.0925 42.9866 34.0923 42.9804 34.0922C42.9742 34.0921 42.968 34.0919 42.9617 34.0918C42.9555 34.0917 42.9493 34.0916 42.943 34.0914C42.9367 34.0913 42.9305 34.0912 42.9242 34.091C42.9179 34.0909 42.9116 34.0908 42.9053 34.0906C42.899 34.0905 42.8927 34.0904 42.8863 34.0902C42.88 34.0901 42.8736 34.09 42.8673 34.0898C42.8609 34.0897 42.8545 34.0896 42.8481 34.0894C42.8418 34.0893 42.8354 34.0892 42.8289 34.089C42.8225 34.0889 42.8161 34.0888 42.8097 34.0886C42.8032 34.0885 42.7968 34.0884 42.7903 34.0882C42.7838 34.0881 42.7773 34.088 42.7709 34.0878C42.7644 34.0877 42.7579 34.0875 42.7513 34.0874C42.7448 34.0873 42.7383 34.0871 42.7317 34.087C42.7252 34.0869 42.7186 34.0867 42.7121 34.0866C42.7055 34.0864 42.6989 34.0863 42.6923 34.0862C42.6857 34.086 42.6791 34.0859 42.6725 34.0858C42.6658 34.0856 42.6592 34.0855 42.6525 34.0853C42.6459 34.0852 42.6392 34.0851 42.6326 34.0849C42.6259 34.0848 42.6192 34.0846 42.6125 34.0845C42.6058 34.0844 42.5991 34.0842 42.5923 34.0841C42.5856 34.0839 42.5789 34.0838 42.5721 34.0836C42.5654 34.0835 42.5586 34.0834 42.5518 34.0832C42.545 34.0831 42.5382 34.0829 42.5314 34.0828C42.5246 34.0826 42.5178 34.0825 42.511 34.0824C42.5041 34.0822 42.4973 34.0821 42.4904 34.0819C42.4836 34.0818 42.4767 34.0816 42.4698 34.0815C42.4629 34.0814 42.456 34.0812 42.4491 34.0811C42.4422 34.0809 42.4353 34.0808 42.4283 34.0806C42.4214 34.0805 42.4144 34.0803 42.4075 34.0802C42.4005 34.08 42.3935 34.0799 42.3865 34.0798C42.3795 34.0796 42.3725 34.0795 42.3655 34.0793C42.3585 34.0792 42.3515 34.079 42.3444 34.0789C42.3374 34.0787 42.3303 34.0786 42.3233 34.0784C42.3162 34.0783 42.3091 34.0781 42.302 34.078C42.2949 34.0778 42.2878 34.0777 42.2807 34.0775C42.2736 34.0774 42.2664 34.0772 42.2593 34.0771C42.2521 34.0769 42.245 34.0768 42.2378 34.0766C42.2306 34.0765 42.2234 34.0763 42.2162 34.0762C42.209 34.076 42.2018 34.0759 42.1946 34.0757C42.1874 34.0756 42.1801 34.0754 42.1729 34.0753C42.1656 34.0751 42.1584 34.075 42.1511 34.0748C42.1438 34.0747 42.1365 34.0745 42.1292 34.0744C42.1219 34.0742 42.1146 34.074 42.1072 34.0739C42.0999 34.0737 42.0926 34.0736 42.0852 34.0734C42.0778 34.0733 42.0705 34.0731 42.0631 34.073C42.0557 34.0728 42.0483 34.0727 42.0409 34.0725C42.0335 34.0723 42.0261 34.0722 42.0186 34.072C42.0112 34.0719 42.0037 34.0717 41.9963 34.0716C41.9888 34.0714 41.9813 34.0713 41.9739 34.0711C41.9664 34.0709 41.9589 34.0708 41.9514 34.0706C41.9438 34.0705 41.9363 34.0703 41.9288 34.0701C41.9212 34.07 41.9137 34.0698 41.9061 34.0697C41.8985 34.0695 41.891 34.0694 41.8834 34.0692C41.8758 34.069 41.8682 34.0689 41.8605 34.0687C41.8529 34.0686 41.8453 34.0684 41.8377 34.0682C41.83 34.0681 41.8223 34.0679 41.8147 34.0678C41.807 34.0676 41.7993 34.0674 41.7916 34.0673C41.7839 34.0671 41.7762 34.0669 41.7685 34.0668C41.7608 34.0666 41.753 34.0665 41.7453 34.0663C41.7375 34.0661 41.7298 34.066 41.722 34.0658C41.7142 34.0656 41.7064 34.0655 41.6986 34.0653C41.6908 34.0652 41.683 34.065 41.6752 34.0648C41.6673 34.0647 41.6595 34.0645 41.6516 34.0643C41.6438 34.0642 41.6359 34.064 41.628 34.0638C41.6202 34.0637 41.6123 34.0635 41.6043 34.0633C41.5964 34.0632 41.5885 34.063 41.5806 34.0628C41.5727 34.0627 41.5647 34.0625 41.5567 34.0623C41.5488 34.0622 41.5408 34.062 41.5328 34.0618C41.5248 34.0617 41.5168 34.0615 41.5088 34.0613C41.5008 34.0612 41.4928 34.061 41.4848 34.0608C41.4767 34.0607 41.4687 34.0605 41.4606 34.0603C41.4525 34.0602 41.4445 34.06 41.4364 34.0598C41.4283 34.0596 41.4202 34.0595 41.4121 34.0593C41.4039 34.0591 41.3958 34.059 41.3877 34.0588C41.3795 34.0586 41.3714 34.0585 41.3632 34.0583C41.355 34.0581 41.3468 34.0579 41.3386 34.0578C41.3305 34.0576 41.3222 34.0574 41.314 34.0573C41.3058 34.0571 41.2976 34.0569 41.2893 34.0567C41.2811 34.0566 41.2728 34.0564 41.2645 34.0562C41.2563 34.056 41.248 34.0559 41.2397 34.0557C41.2314 34.0555 41.2231 34.0553 41.2147 34.0552C41.2064 34.055 41.1981 34.0548 41.1897 34.0546C41.1814 34.0545 41.173 34.0543 41.1646 34.0541C41.1562 34.0539 41.1478 34.0538 41.1394 34.0536C41.131 34.0534 41.1226 34.0532 41.1142 34.0531C41.1058 34.0529 41.0973 34.0527 41.0889 34.0525C41.0804 34.0524 41.0719 34.0522 41.0634 34.052C41.055 34.0518 41.0465 34.0516 41.0379 34.0515C41.0294 34.0513 41.0209 34.0511 41.0124 34.0509C41.0038 34.0507 40.9953 34.0506 40.9867 34.0504C40.9782 34.0502 40.9696 34.05 40.961 34.0498C40.9524 34.0497 40.9438 34.0495 40.9352 34.0493C40.9266 34.0491 40.918 34.0489 40.9093 34.0488C40.9007 34.0486 40.892 34.0484 40.8834 34.0482C40.8747 34.048 40.866 34.0479 40.8573 34.0477C40.8486 34.0475 40.8399 34.0473 40.8312 34.0471C40.8225 34.0469 40.8137 34.0468 40.805 34.0466C40.7963 34.0464 40.7875 34.0462 40.7787 34.046C40.77 34.0458 40.7612 34.0457 40.7524 34.0455C40.7436 34.0453 40.7348 34.0451 40.7259 34.0449C40.7171 34.0447 40.7083 34.0445 40.6994 34.0444C40.6906 34.0442 40.6817 34.044 40.6728 34.0438C40.664 34.0436 40.6551 34.0434 40.6462 34.0432C40.6373 34.0431 40.6284 34.0429 40.6194 34.0427C40.6105 34.0425 40.6016 34.0423 40.5926 34.0421C40.5836 34.0419 40.5747 34.0417 40.5657 34.0416C40.5567 34.0414 40.5477 34.0412 40.5387 34.041C40.5297 34.0408 40.5207 34.0406 40.5116 34.0404C40.5026 34.0402 40.4936 34.04 40.4845 34.0399C40.4754 34.0397 40.4664 34.0395 40.4573 34.0393C40.4482 34.0391 40.4391 34.0389 40.43 34.0387C40.4209 34.0385 40.4118 34.0383 40.4026 34.0381C40.3935 34.0379 40.3843 34.0377 40.3752 34.0376C40.366 34.0374 40.3568 34.0372 40.3476 34.037C40.3384 34.0368 40.3292 34.0366 40.32 34.0364C40.3108 34.0362 40.3016 34.036 40.2923 34.0358C40.2831 34.0356 40.2738 34.0354 40.2646 34.0352C40.2553 34.035 40.246 34.0348 40.2367 34.0347C40.2274 34.0345 40.2181 34.0343 40.2088 34.0341C40.1995 34.0339 40.1901 34.0337 40.1808 34.0335C40.1714 34.0333 40.1621 34.0331 40.1527 34.0329C40.1433 34.0327 40.1339 34.0325 40.1245 34.0323C40.1151 34.0321 40.1057 34.0319 40.0963 34.0317C40.0869 34.0315 40.0774 34.0313 40.068 34.0311C40.0585 34.0309 40.0491 34.0307 40.0396 34.0305C40.0301 34.0303 40.0206 34.0301 40.0111 34.0299C40.0016 34.0297 39.9921 34.0295 39.9826 34.0293C39.973 34.0291 39.9635 34.0289 39.9539 34.0287C39.9444 34.0285 39.9348 34.0283 39.9252 34.0281C39.9156 34.0279 39.906 34.0277 39.8964 34.0275C39.8868 34.0273 39.8772 34.0271 39.8676 34.0269C39.8579 34.0267 39.8483 34.0265 39.8386 34.0263C39.829 34.0261 39.8193 34.0259 39.8096 34.0257C39.7999 34.0255 39.7902 34.0253 39.7805 34.0251C39.7708 34.0249 39.761 34.0247 39.7513 34.0245C39.7416 34.0243 39.7318 34.0241 39.722 34.0239C39.7123 34.0236 39.7025 34.0234 39.6927 34.0232C39.6829 34.023 39.6731 34.0228 39.6633 34.0226C39.6535 34.0224 39.6436 34.0222 39.6338 34.022C39.6239 34.0218 39.6141 34.0216 39.6042 34.0214C39.5943 34.0212 39.5845 34.021 39.5746 34.0208C39.5647 34.0206 39.5548 34.0203 39.5448 34.0201C39.5349 34.0199 39.525 34.0197 39.515 34.0195C39.5051 34.0193 39.4951 34.0191 39.4851 34.0189C39.4752 34.0187 39.4652 34.0185 39.4552 34.0183C39.4452 34.018 39.4351 34.0178 39.4251 34.0176C39.4151 34.0174 39.405 34.0172 39.395 34.017C39.3849 34.0168 39.3749 34.0166 39.3648 34.0164C39.3547 34.0161 39.3446 34.0159 39.3345 34.0157C39.3244 34.0155 39.3143 34.0153 39.3041 34.0151C39.294 34.0149 39.2839 34.0147 39.2737 34.0144C39.2635 34.0142 39.2534 34.014 39.2432 34.0138C39.233 34.0136 39.2228 34.0134 39.2126 34.0132C39.2024 34.013 39.1922 34.0127 39.1819 34.0125C39.1717 34.0123 39.1614 34.0121 39.1512 34.0119C39.1409 34.0117 39.1306 34.0114 39.1203 34.0112C39.11 34.011 39.0997 34.0108 39.0894 34.0106C39.0791 34.0104 39.0688 34.0101 39.0584 34.0099C39.0481 34.0097 39.0377 34.0095 39.0274 34.0093C39.017 34.0091 39.0066 34.0088 38.9962 34.0086C38.9858 34.0084 38.9754 34.0082 38.965 34.008C38.9546 34.0078 38.9441 34.0075 38.9337 34.0073C38.9232 34.0071 38.9128 34.0069 38.9023 34.0067C38.8918 34.0064 38.8813 34.0062 38.8708 34.006C38.8603 34.0058 38.8498 34.0056 38.8393 34.0053C38.8288 34.0051 38.8182 34.0049 38.8077 34.0047C38.7971 34.0045 38.7866 34.0042 38.776 34.004C38.7654 34.0038 38.7548 34.0036 38.7442 34.0033C38.7336 34.0031 38.723 34.0029 38.7124 34.0027C38.7017 34.0025 38.6911 34.0022 38.6804 34.002C38.6698 34.0018 38.6591 34.0016 38.6484 34.0013C38.6377 34.0011 38.627 34.0009 38.6163 34.0007C38.6056 34.0004 38.5949 34.0002 38.5842 34C38.5734 33.9998 38.5627 33.9995 38.5519 33.9993C38.5412 33.9991 38.5304 33.9989 38.5196 33.9986C38.5088 33.9984 38.498 33.9982 38.4872 33.9979C38.4764 33.9977 38.4656 33.9975 38.4547 33.9973C38.4439 33.997 38.433 33.9968 38.4222 33.9966C38.4113 33.9964 38.4004 33.9961 38.3895 33.9959C38.3786 33.9957 38.3677 33.9954 38.3568 33.9952C38.3459 33.995 38.335 33.9948 38.324 33.9945C38.3131 33.9943 38.3021 33.9941 38.2911 33.9938C38.2802 33.9936 38.2692 33.9934 38.2582 33.9931C38.2472 33.9929 38.2362 33.9927 38.2251 33.9925C38.2141 33.9922 38.2031 33.992 38.192 33.9918C38.181 33.9915 38.1699 33.9913 38.1589 33.9911C38.1478 33.9908 38.1367 33.9906 38.1256 33.9904C38.1145 33.9901 38.1034 33.9899 38.0922 33.9897C38.0811 33.9894 38.07 33.9892 38.0588 33.989C38.0477 33.9887 38.0365 33.9885 38.0253 33.9883C38.0141 33.988 38.0029 33.9878 37.9917 33.9876C37.9805 33.9873 37.9693 33.9871 37.9581 33.9868C37.9468 33.9866 37.9356 33.9864 37.9243 33.9861C37.9131 33.9859 37.9018 33.9857 37.8905 33.9854C37.8792 33.9852 37.8679 33.985 37.8566 33.9847C37.8453 33.9845 37.834 33.9842 37.8226 33.984C37.8113 33.9838 37.8 33.9835 37.7886 33.9833C37.7772 33.9831 37.7659 33.9828 37.7545 33.9826C37.7431 33.9823 37.7317 33.9821 37.7203 33.9819C37.7088 33.9816 37.6974 33.9814 37.686 33.9811C37.6745 33.9809 37.6631 33.9807 37.6516 33.9804C37.6401 33.9802 37.6287 33.9799 37.6172 33.9797C37.6057 33.9795 37.5942 33.9792 37.5826 33.979C37.5711 33.9787 37.5596 33.9785 37.548 33.9782C37.5365 33.978 37.5249 33.9778 37.5133 33.9775C37.5018 33.9773 37.4902 33.977 37.4786 33.9768C37.467 33.9765 37.4554 33.9763 37.4438 33.9761C37.4321 33.9758 37.4205 33.9756 37.4088 33.9753C37.3972 33.9751 37.3855 33.9748 37.3738 33.9746C37.3622 33.9743 37.3505 33.9741 37.3388 33.9739C37.3271 33.9736 37.3153 33.9734 37.3036 33.9731C37.2919 33.9729 37.2801 33.9726 37.2684 33.9724C37.2566 33.9721 37.2449 33.9719 37.2331 33.9716C37.2213 33.9714 37.2095 33.9711 37.1977 33.9709C37.1859 33.9706 37.1741 33.9704 37.1622 33.9702C37.1504 33.9699 37.1385 33.9697 37.1267 33.9694C37.1148 33.9692 37.1029 33.9689 37.0911 33.9687C37.0792 33.9684 37.0673 33.9682 37.0553 33.9679C37.0434 33.9677 37.0315 33.9674 37.0196 33.9672C37.0076 33.9669 36.9957 33.9667 36.9837 33.9664C36.9717 33.9662 36.9598 33.9659 36.9478 33.9657C36.9358 33.9654 36.9238 33.9652 36.9118 33.9649C36.8997 33.9646 36.8877 33.9644 36.8757 33.9641C36.8636 33.9639 36.8516 33.9636 36.8395 33.9634C36.8274 33.9631 36.8153 33.9629 36.8032 33.9626C36.7911 33.9624 36.779 33.9621 36.7669 33.9619C36.7548 33.9616 36.7426 33.9614 36.7305 33.9611C36.7183 33.9608 36.7062 33.9606 36.694 33.9603C36.6818 33.9601 36.6696 33.9598 36.6574 33.9596C36.6452 33.9593 36.633 33.9591 36.6208 33.9588C36.6086 33.9585 36.5963 33.9583 36.5841 33.958C36.5718 33.9578 36.5596 33.9575 36.5473 33.9573C36.535 33.957 36.5227 33.9567 36.5104 33.9565C36.4981 33.9562 36.4858 33.956 36.4734 33.9557C36.4611 33.9554 36.4488 33.9552 36.4364 33.9549C36.424 33.9547 36.4117 33.9544 36.3993 33.9541C36.3869 33.9539 36.3745 33.9536 36.3621 33.9534C36.3497 33.9531 36.3373 33.9528 36.3248 33.9526C36.3124 33.9523 36.2999 33.9521 36.2875 33.9518C36.275 33.9515 36.2625 33.9513 36.25 33.951C36.2375 33.9508 36.225 33.9505 36.2125 33.9502C36.2 33.95 36.1875 33.9497 36.1749 33.9494C36.1624 33.9492 36.1498 33.9489 36.1373 33.9487C36.1247 33.9484 36.1121 33.9481 36.0995 33.9479C36.0869 33.9476 36.0743 33.9473 36.0617 33.9471C36.0491 33.9468 36.0364 33.9465 36.0238 33.9463C36.0112 33.946 35.9985 33.9457 35.9858 33.9455C35.9731 33.9452 35.9605 33.9449 35.9478 33.9447C35.9351 33.9444 35.9224 33.9441 35.9096 33.9439C35.8969 33.9436 35.8842 33.9433 35.8714 33.9431C35.8587 33.9428 35.8459 33.9425 35.8331 33.9423C35.8203 33.942 35.8075 33.9417 35.7947 33.9415C35.7819 33.9412 35.7691 33.9409 35.7563 33.9407C35.7435 33.9404 35.7306 33.9401 35.7178 33.9398C35.7049 33.9396 35.692 33.9393 35.6792 33.939C35.6663 33.9388 35.6534 33.9385 35.6405 33.9382C35.6276 33.938 35.6146 33.9377 35.6017 33.9374C35.5888 33.9371 35.5758 33.9369 35.5629 33.9366C35.5499 33.9363 35.5369 33.9361 35.5239 33.9358C35.5109 33.9355 35.4979 33.9352 35.4849 33.935C35.4719 33.9347 35.4589 33.9344 35.4459 33.9341C35.4328 33.9339 35.4198 33.9336 35.4067 33.9333C35.3936 33.9331 35.3806 33.9328 35.3675 33.9325C35.3544 33.9322 35.3413 33.932 35.3281 33.9317C35.315 33.9314 35.3019 33.9311 35.2887 33.9308C35.2756 33.9306 35.2624 33.9303 35.2493 33.93C35.2361 33.9297 35.2229 33.9295 35.2097 33.9292C35.1965 33.9289 35.1833 33.9286 35.1701 33.9284C35.1569 33.9281 35.1436 33.9278 35.1304 33.9275C35.1171 33.9272 35.1039 33.927 35.0906 33.9267C35.0773 33.9264 35.064 33.9261 35.0507 33.9259C35.0374 33.9256 35.0241 33.9253 35.0108 33.925C34.9975 33.9247 34.9841 33.9245 34.9708 33.9242C34.9574 33.9239 34.944 33.9236 34.9307 33.9233C34.9173 33.9231 34.9039 33.9228 34.8905 33.9225L34.8695 34.9223C34.8829 34.9226 34.8963 34.9228 34.9097 34.9231C34.9231 34.9234 34.9364 34.9237 34.9498 34.924C34.9631 34.9242 34.9765 34.9245 34.9898 34.9248C35.0031 34.9251 35.0165 34.9254 35.0298 34.9256C35.0431 34.9259 35.0564 34.9262 35.0696 34.9265C35.0829 34.9268 35.0962 34.927 35.1094 34.9273C35.1227 34.9276 35.1359 34.9279 35.1491 34.9281C35.1623 34.9284 35.1756 34.9287 35.1888 34.929C35.2019 34.9292 35.2151 34.9295 35.2283 34.9298C35.2415 34.9301 35.2546 34.9304 35.2678 34.9306C35.2809 34.9309 35.2941 34.9312 35.3072 34.9315C35.3203 34.9317 35.3334 34.932 35.3465 34.9323C35.3596 34.9326 35.3727 34.9328 35.3857 34.9331C35.3988 34.9334 35.4118 34.9337 35.4249 34.9339C35.4379 34.9342 35.4509 34.9345 35.464 34.9347C35.477 34.935 35.49 34.9353 35.503 34.9356C35.5159 34.9358 35.5289 34.9361 35.5419 34.9364C35.5548 34.9367 35.5678 34.9369 35.5807 34.9372C35.5937 34.9375 35.6066 34.9377 35.6195 34.938C35.6324 34.9383 35.6453 34.9385 35.6582 34.9388C35.6711 34.9391 35.6839 34.9394 35.6968 34.9396C35.7096 34.9399 35.7225 34.9402 35.7353 34.9404C35.7481 34.9407 35.761 34.941 35.7738 34.9412C35.7866 34.9415 35.7994 34.9418 35.8121 34.942C35.8249 34.9423 35.8377 34.9426 35.8504 34.9429C35.8632 34.9431 35.8759 34.9434 35.8887 34.9437C35.9014 34.9439 35.9141 34.9442 35.9268 34.9445C35.9395 34.9447 35.9522 34.945 35.9648 34.9453C35.9775 34.9455 35.9902 34.9458 36.0028 34.9461C36.0155 34.9463 36.0281 34.9466 36.0407 34.9468C36.0533 34.9471 36.066 34.9474 36.0786 34.9476C36.0911 34.9479 36.1037 34.9482 36.1163 34.9484C36.1289 34.9487 36.1414 34.949 36.154 34.9492C36.1665 34.9495 36.179 34.9497 36.1915 34.95C36.2041 34.9503 36.2166 34.9505 36.2291 34.9508C36.2415 34.9511 36.254 34.9513 36.2665 34.9516C36.279 34.9518 36.2914 34.9521 36.3038 34.9524C36.3163 34.9526 36.3287 34.9529 36.3411 34.9531C36.3535 34.9534 36.3659 34.9537 36.3783 34.9539C36.3907 34.9542 36.4031 34.9544 36.4154 34.9547C36.4278 34.955 36.4401 34.9552 36.4525 34.9555C36.4648 34.9557 36.4771 34.956 36.4894 34.9563C36.5017 34.9565 36.514 34.9568 36.5263 34.957C36.5386 34.9573 36.5508 34.9575 36.5631 34.9578C36.5754 34.9581 36.5876 34.9583 36.5998 34.9586C36.6121 34.9588 36.6243 34.9591 36.6365 34.9593C36.6487 34.9596 36.6609 34.9599 36.673 34.9601C36.6852 34.9604 36.6974 34.9606 36.7095 34.9609C36.7217 34.9611 36.7338 34.9614 36.7459 34.9616C36.7581 34.9619 36.7702 34.9621 36.7823 34.9624C36.7944 34.9627 36.8064 34.9629 36.8185 34.9632C36.8306 34.9634 36.8426 34.9637 36.8547 34.9639C36.8667 34.9642 36.8788 34.9644 36.8908 34.9647C36.9028 34.9649 36.9148 34.9652 36.9268 34.9654C36.9388 34.9657 36.9508 34.9659 36.9627 34.9662C36.9747 34.9664 36.9867 34.9667 36.9986 34.9669C37.0105 34.9672 37.0225 34.9674 37.0344 34.9677C37.0463 34.9679 37.0582 34.9682 37.0701 34.9684C37.082 34.9687 37.0938 34.9689 37.1057 34.9692C37.1176 34.9694 37.1294 34.9697 37.1412 34.9699C37.1531 34.9702 37.1649 34.9704 37.1767 34.9707C37.1885 34.9709 37.2003 34.9712 37.2121 34.9714C37.2239 34.9717 37.2357 34.9719 37.2474 34.9722C37.2592 34.9724 37.2709 34.9727 37.2826 34.9729C37.2944 34.9731 37.3061 34.9734 37.3178 34.9736C37.3295 34.9739 37.3412 34.9741 37.3529 34.9744C37.3645 34.9746 37.3762 34.9749 37.3879 34.9751C37.3995 34.9754 37.4112 34.9756 37.4228 34.9758C37.4344 34.9761 37.446 34.9763 37.4576 34.9766C37.4692 34.9768 37.4808 34.9771 37.4924 34.9773C37.5039 34.9775 37.5155 34.9778 37.5271 34.978C37.5386 34.9783 37.5501 34.9785 37.5617 34.9788C37.5732 34.979 37.5847 34.9792 37.5962 34.9795C37.6077 34.9797 37.6192 34.98 37.6306 34.9802C37.6421 34.9804 37.6536 34.9807 37.665 34.9809C37.6764 34.9812 37.6879 34.9814 37.6993 34.9816C37.7107 34.9819 37.7221 34.9821 37.7335 34.9824C37.7449 34.9826 37.7563 34.9828 37.7676 34.9831C37.779 34.9833 37.7903 34.9835 37.8017 34.9838C37.813 34.984 37.8243 34.9843 37.8356 34.9845C37.847 34.9847 37.8583 34.985 37.8695 34.9852C37.8808 34.9854 37.8921 34.9857 37.9034 34.9859C37.9146 34.9862 37.9259 34.9864 37.9371 34.9866C37.9483 34.9869 37.9596 34.9871 37.9708 34.9873C37.982 34.9876 37.9932 34.9878 38.0043 34.988C38.0155 34.9883 38.0267 34.9885 38.0378 34.9887C38.049 34.989 38.0601 34.9892 38.0713 34.9894C38.0824 34.9897 38.0935 34.9899 38.1046 34.9901C38.1157 34.9904 38.1268 34.9906 38.1379 34.9908C38.149 34.9911 38.16 34.9913 38.1711 34.9915C38.1821 34.9918 38.1932 34.992 38.2042 34.9922C38.2152 34.9925 38.2262 34.9927 38.2372 34.9929C38.2482 34.9932 38.2592 34.9934 38.2702 34.9936C38.2811 34.9938 38.2921 34.9941 38.303 34.9943C38.314 34.9945 38.3249 34.9948 38.3358 34.995C38.3467 34.9952 38.3577 34.9955 38.3685 34.9957C38.3794 34.9959 38.3903 34.9961 38.4012 34.9964C38.4121 34.9966 38.4229 34.9968 38.4337 34.997C38.4446 34.9973 38.4554 34.9975 38.4662 34.9977C38.477 34.998 38.4878 34.9982 38.4986 34.9984C38.5094 34.9986 38.5202 34.9989 38.531 34.9991C38.5417 34.9993 38.5525 34.9995 38.5632 34.9998C38.5739 35 38.5847 35.0002 38.5954 35.0004C38.6061 35.0007 38.6168 35.0009 38.6275 35.0011C38.6381 35.0013 38.6488 35.0016 38.6595 35.0018C38.6701 35.002 38.6808 35.0022 38.6914 35.0025C38.702 35.0027 38.7126 35.0029 38.7232 35.0031C38.7339 35.0033 38.7444 35.0036 38.755 35.0038C38.7656 35.004 38.7762 35.0042 38.7867 35.0045C38.7973 35.0047 38.8078 35.0049 38.8183 35.0051C38.8289 35.0053 38.8394 35.0056 38.8499 35.0058C38.8604 35.006 38.8709 35.0062 38.8813 35.0064C38.8918 35.0067 38.9023 35.0069 38.9127 35.0071C38.9232 35.0073 38.9336 35.0075 38.944 35.0078C38.9544 35.008 38.9648 35.0082 38.9752 35.0084C38.9856 35.0086 38.996 35.0088 39.0064 35.0091C39.0168 35.0093 39.0271 35.0095 39.0375 35.0097C39.0478 35.0099 39.0581 35.0101 39.0684 35.0104C39.0788 35.0106 39.0891 35.0108 39.0994 35.011C39.1096 35.0112 39.1199 35.0114 39.1302 35.0117C39.1405 35.0119 39.1507 35.0121 39.1609 35.0123C39.1712 35.0125 39.1814 35.0127 39.1916 35.0129C39.2018 35.0132 39.212 35.0134 39.2222 35.0136C39.2324 35.0138 39.2426 35.014 39.2527 35.0142C39.2629 35.0144 39.273 35.0147 39.2832 35.0149C39.2933 35.0151 39.3034 35.0153 39.3135 35.0155C39.3236 35.0157 39.3337 35.0159 39.3438 35.0161C39.3539 35.0164 39.364 35.0166 39.374 35.0168C39.3841 35.017 39.3941 35.0172 39.4041 35.0174C39.4142 35.0176 39.4242 35.0178 39.4342 35.018C39.4442 35.0182 39.4542 35.0185 39.4642 35.0187C39.4741 35.0189 39.4841 35.0191 39.494 35.0193C39.504 35.0195 39.5139 35.0197 39.5239 35.0199C39.5338 35.0201 39.5437 35.0203 39.5536 35.0205C39.5635 35.0207 39.5734 35.021 39.5832 35.0212C39.5931 35.0214 39.603 35.0216 39.6128 35.0218C39.6227 35.022 39.6325 35.0222 39.6423 35.0224C39.6521 35.0226 39.6619 35.0228 39.6717 35.023C39.6815 35.0232 39.6913 35.0234 39.7011 35.0236C39.7108 35.0238 39.7206 35.024 39.7303 35.0242C39.7401 35.0245 39.7498 35.0247 39.7595 35.0249C39.7692 35.0251 39.7789 35.0253 39.7886 35.0255C39.7983 35.0257 39.808 35.0259 39.8176 35.0261C39.8273 35.0263 39.8369 35.0265 39.8466 35.0267C39.8562 35.0269 39.8658 35.0271 39.8755 35.0273C39.8851 35.0275 39.8947 35.0277 39.9042 35.0279C39.9138 35.0281 39.9234 35.0283 39.933 35.0285C39.9425 35.0287 39.9521 35.0289 39.9616 35.0291C39.9711 35.0293 39.9806 35.0295 39.9901 35.0297C39.9996 35.0299 40.0091 35.0301 40.0186 35.0303C40.0281 35.0305 40.0376 35.0307 40.047 35.0309C40.0565 35.0311 40.0659 35.0313 40.0753 35.0315C40.0848 35.0317 40.0942 35.0319 40.1036 35.0321C40.113 35.0323 40.1224 35.0325 40.1317 35.0327C40.1411 35.0329 40.1505 35.0331 40.1598 35.0333C40.1692 35.0335 40.1785 35.0337 40.1878 35.0338C40.1971 35.034 40.2064 35.0342 40.2157 35.0344C40.225 35.0346 40.2343 35.0348 40.2436 35.035C40.2529 35.0352 40.2621 35.0354 40.2714 35.0356C40.2806 35.0358 40.2898 35.036 40.299 35.0362C40.3083 35.0364 40.3175 35.0366 40.3267 35.0368C40.3358 35.037 40.345 35.0371 40.3542 35.0373C40.3634 35.0375 40.3725 35.0377 40.3816 35.0379C40.3908 35.0381 40.3999 35.0383 40.409 35.0385C40.4181 35.0387 40.4272 35.0389 40.4363 35.0391C40.4454 35.0392 40.4545 35.0394 40.4635 35.0396C40.4726 35.0398 40.4816 35.04 40.4907 35.0402C40.4997 35.0404 40.5087 35.0406 40.5177 35.0408C40.5267 35.041 40.5357 35.0411 40.5447 35.0413C40.5537 35.0415 40.5627 35.0417 40.5716 35.0419C40.5806 35.0421 40.5895 35.0423 40.5984 35.0425C40.6074 35.0426 40.6163 35.0428 40.6252 35.043C40.6341 35.0432 40.643 35.0434 40.6519 35.0436C40.6607 35.0438 40.6696 35.044 40.6785 35.0441C40.6873 35.0443 40.6961 35.0445 40.705 35.0447C40.7138 35.0449 40.7226 35.0451 40.7314 35.0452C40.7402 35.0454 40.749 35.0456 40.7578 35.0458C40.7665 35.046 40.7753 35.0462 40.784 35.0464C40.7928 35.0465 40.8015 35.0467 40.8102 35.0469C40.8189 35.0471 40.8277 35.0473 40.8363 35.0475C40.845 35.0476 40.8537 35.0478 40.8624 35.048C40.871 35.0482 40.8797 35.0484 40.8883 35.0485C40.897 35.0487 40.9056 35.0489 40.9142 35.0491C40.9228 35.0493 40.9314 35.0494 40.94 35.0496C40.9486 35.0498 40.9572 35.05 40.9658 35.0502C40.9743 35.0503 40.9829 35.0505 40.9914 35.0507C40.9999 35.0509 41.0085 35.0511 41.017 35.0512C41.0255 35.0514 41.034 35.0516 41.0425 35.0518C41.0509 35.052 41.0594 35.0521 41.0679 35.0523C41.0763 35.0525 41.0848 35.0527 41.0932 35.0528C41.1016 35.053 41.1101 35.0532 41.1185 35.0534C41.1269 35.0535 41.1353 35.0537 41.1436 35.0539C41.152 35.0541 41.1604 35.0542 41.1687 35.0544C41.1771 35.0546 41.1854 35.0548 41.1938 35.0549C41.2021 35.0551 41.2104 35.0553 41.2187 35.0555C41.227 35.0556 41.2353 35.0558 41.2436 35.056C41.2518 35.0562 41.2601 35.0563 41.2683 35.0565C41.2766 35.0567 41.2848 35.0569 41.293 35.057C41.3013 35.0572 41.3095 35.0574 41.3177 35.0575C41.3259 35.0577 41.3341 35.0579 41.3422 35.0581C41.3504 35.0582 41.3585 35.0584 41.3667 35.0586C41.3748 35.0587 41.383 35.0589 41.3911 35.0591C41.3992 35.0593 41.4073 35.0594 41.4154 35.0596C41.4235 35.0598 41.4316 35.0599 41.4396 35.0601C41.4477 35.0603 41.4557 35.0604 41.4638 35.0606C41.4718 35.0608 41.4798 35.061 41.4879 35.0611C41.4959 35.0613 41.5039 35.0615 41.5119 35.0616C41.5198 35.0618 41.5278 35.062 41.5358 35.0621C41.5437 35.0623 41.5517 35.0625 41.5596 35.0626C41.5675 35.0628 41.5755 35.063 41.5834 35.0631C41.5913 35.0633 41.5992 35.0635 41.6071 35.0636C41.6149 35.0638 41.6228 35.0639 41.6307 35.0641C41.6385 35.0643 41.6464 35.0644 41.6542 35.0646C41.662 35.0648 41.6698 35.0649 41.6776 35.0651C41.6854 35.0653 41.6932 35.0654 41.701 35.0656C41.7088 35.0658 41.7165 35.0659 41.7243 35.0661C41.732 35.0662 41.7398 35.0664 41.7475 35.0666C41.7552 35.0667 41.7629 35.0669 41.7706 35.0671C41.7783 35.0672 41.786 35.0674 41.7937 35.0675C41.8014 35.0677 41.809 35.0679 41.8167 35.068C41.8243 35.0682 41.832 35.0683 41.8396 35.0685C41.8472 35.0687 41.8548 35.0688 41.8624 35.069C41.87 35.0691 41.8776 35.0693 41.8851 35.0695C41.8927 35.0696 41.9003 35.0698 41.9078 35.0699C41.9153 35.0701 41.9229 35.0702 41.9304 35.0704C41.9379 35.0706 41.9454 35.0707 41.9529 35.0709C41.9604 35.071 41.9678 35.0712 41.9753 35.0713C41.9828 35.0715 41.9902 35.0717 41.9977 35.0718C42.0051 35.072 42.0125 35.0721 42.0199 35.0723C42.0273 35.0724 42.0347 35.0726 42.0421 35.0727C42.0495 35.0729 42.0569 35.0731 42.0642 35.0732C42.0716 35.0734 42.0789 35.0735 42.0863 35.0737C42.0936 35.0738 42.1009 35.074 42.1082 35.0741C42.1155 35.0743 42.1228 35.0744 42.1301 35.0746C42.1374 35.0747 42.1446 35.0749 42.1519 35.0751C42.1592 35.0752 42.1664 35.0754 42.1736 35.0755C42.1808 35.0757 42.1881 35.0758 42.1953 35.076C42.2025 35.0761 42.2096 35.0763 42.2168 35.0764C42.224 35.0766 42.2312 35.0767 42.2383 35.0769C42.2455 35.077 42.2526 35.0772 42.2597 35.0773C42.2668 35.0775 42.2739 35.0776 42.281 35.0778C42.2881 35.0779 42.2952 35.0781 42.3023 35.0782C42.3094 35.0784 42.3164 35.0785 42.3235 35.0786C42.3305 35.0788 42.3375 35.0789 42.3445 35.0791C42.3516 35.0792 42.3586 35.0794 42.3656 35.0795C42.3726 35.0797 42.3795 35.0798 42.3865 35.08C42.3935 35.0801 42.4004 35.0803 42.4073 35.0804C42.4143 35.0806 42.4212 35.0807 42.4281 35.0808C42.435 35.081 42.4419 35.0811 42.4488 35.0813C42.4557 35.0814 42.4626 35.0816 42.4694 35.0817C42.4763 35.0819 42.4832 35.082 42.49 35.0821C42.4968 35.0823 42.5036 35.0824 42.5104 35.0826C42.5173 35.0827 42.5241 35.0829 42.5308 35.083C42.5376 35.0831 42.5444 35.0833 42.5511 35.0834C42.5579 35.0836 42.5646 35.0837 42.5714 35.0839C42.5781 35.084 42.5848 35.0841 42.5915 35.0843C42.5982 35.0844 42.6049 35.0846 42.6116 35.0847C42.6183 35.0848 42.6249 35.085 42.6316 35.0851C42.6382 35.0853 42.6449 35.0854 42.6515 35.0855C42.6581 35.0857 42.6647 35.0858 42.6713 35.0859C42.6779 35.0861 42.6845 35.0862 42.6911 35.0864C42.6977 35.0865 42.7042 35.0866 42.7108 35.0868C42.7173 35.0869 42.7238 35.087 42.7304 35.0872C42.7369 35.0873 42.7434 35.0875 42.7499 35.0876C42.7564 35.0877 42.7628 35.0879 42.7693 35.088C42.7758 35.0881 42.7822 35.0883 42.7887 35.0884C42.7951 35.0885 42.8015 35.0887 42.808 35.0888C42.8144 35.0889 42.8208 35.0891 42.8272 35.0892C42.8336 35.0893 42.8399 35.0895 42.8463 35.0896C42.8527 35.0898 42.859 35.0899 42.8653 35.09C42.8717 35.0902 42.878 35.0903 42.8843 35.0904C42.8906 35.0905 42.8969 35.0907 42.9032 35.0908C42.9095 35.0909 42.9158 35.0911 42.922 35.0912C42.9283 35.0913 42.9345 35.0915 42.9408 35.0916C42.947 35.0917 42.9532 35.0919 42.9594 35.092C42.9656 35.0921 42.9718 35.0923 42.978 35.0924C42.9842 35.0925 42.9903 35.0926 42.9965 35.0928C43.0026 35.0929 43.0088 35.093 43.0149 35.0932C43.021 35.0933 43.0272 35.0934 43.0333 35.0935C43.0394 35.0937 43.0454 35.0938 43.0515 35.0939C43.0576 35.094 43.0637 35.0942 43.0697 35.0943C43.0758 35.0944 43.0818 35.0946 43.0878 35.0947C43.0938 35.0948 43.0998 35.0949 43.1058 35.0951C43.1118 35.0952 43.1178 35.0953 43.1238 35.0954C43.1298 35.0956 43.1357 35.0957 43.1417 35.0958C43.1476 35.0959 43.1535 35.0961 43.1594 35.0962C43.1654 35.0963 43.1713 35.0964 43.1772 35.0966C43.1831 35.0967 43.1889 35.0968 43.1948 35.0969C43.2007 35.0971 43.2065 35.0972 43.2124 35.0973C43.2182 35.0974 43.224 35.0975 43.2298 35.0977C43.2356 35.0978 43.2414 35.0979 43.2472 35.098C43.253 35.0982 43.2588 35.0983 43.2646 35.0984C43.2703 35.0985 43.2761 35.0986 43.2818 35.0988C43.2875 35.0989 43.2932 35.099 43.299 35.0991C43.3047 35.0992 43.3104 35.0994 43.316 35.0995C43.3217 35.0996 43.3274 35.0997 43.333 35.0998C43.3387 35.0999 43.3443 35.1001 43.35 35.1002C43.3556 35.1003 43.3612 35.1004 43.3668 35.1005C43.3724 35.1007 43.378 35.1008 43.3836 35.1009C43.3892 35.101 43.3947 35.1011 43.4003 35.1012C43.4058 35.1014 43.4114 35.1015 43.4169 35.1016C43.4224 35.1017 43.4279 35.1018 43.4334 35.1019C43.4389 35.1021 43.4444 35.1022 43.4499 35.1023C43.4554 35.1024 43.4608 35.1025 43.4663 35.1026C43.4717 35.1027 43.4772 35.1029 43.4826 35.103C43.488 35.1031 43.4934 35.1032 43.4988 35.1033C43.5042 35.1034 43.5096 35.1035 43.5149 35.1036C43.5203 35.1038 43.5257 35.1039 43.531 35.104C43.5363 35.1041 43.5417 35.1042 43.547 35.1043C43.5523 35.1044 43.5576 35.1045 43.5629 35.1047C43.5682 35.1048 43.5735 35.1049 43.5787 35.105C43.584 35.1051 43.5892 35.1052 43.5945 35.1053C43.5997 35.1054 43.6049 35.1055 43.6101 35.1056C43.6154 35.1058 43.6206 35.1059 43.6257 35.106C43.6309 35.1061 43.6361 35.1062 43.6412 35.1063C43.6464 35.1064 43.6516 35.1065 43.6567 35.1066C43.6618 35.1067 43.6669 35.1068 43.672 35.1069C43.6771 35.107 43.6822 35.1072 43.6873 35.1073C43.6924 35.1074 43.6975 35.1075 43.7025 35.1076C43.7076 35.1077 43.7126 35.1078 43.7176 35.1079C43.7227 35.108 43.7277 35.1081 43.7327 35.1082C43.7377 35.1083 43.7427 35.1084 43.7476 35.1085C43.7526 35.1086 43.7576 35.1087 43.7625 35.1088C43.7675 35.1089 43.7724 35.109 43.7773 35.1091C43.7823 35.1093 43.7872 35.1094 43.7921 35.1095C43.797 35.1096 43.8018 35.1097 43.8067 35.1098C43.8116 35.1099 43.8164 35.11 43.8213 35.1101C43.8261 35.1102 43.831 35.1103 43.8358 35.1104C43.8406 35.1105 43.8454 35.1106 43.8502 35.1107C43.855 35.1108 43.8598 35.1109 43.8645 35.111C43.8693 35.1111 43.8741 35.1112 43.8788 35.1113C43.8835 35.1114 43.8883 35.1115 43.893 35.1116C43.8977 35.1117 43.9024 35.1118 43.9071 35.1119C43.9118 35.112 43.9164 35.1121 43.9211 35.1122C43.9258 35.1123 43.9304 35.1124 43.935 35.1125C43.9397 35.1126 43.9443 35.1127 43.9489 35.1127C43.9535 35.1128 43.9581 35.1129 43.9627 35.113C43.9673 35.1131 43.9718 35.1132 43.9764 35.1133C43.9809 35.1134 43.9855 35.1135 43.99 35.1136C43.9945 35.1137 43.9991 35.1138 44.0036 35.1139C44.0081 35.114 44.0126 35.1141 44.017 35.1142C44.0215 35.1143 44.026 35.1144 44.0304 35.1145C44.0349 35.1146 44.0393 35.1146 44.0437 35.1147C44.0482 35.1148 44.0526 35.1149 44.057 35.115C44.0614 35.1151 44.0658 35.1152 44.0701 35.1153C44.0745 35.1154 44.0789 35.1155 44.0832 35.1156C44.0876 35.1157 44.0919 35.1157 44.0962 35.1158C44.1005 35.1159 44.1049 35.116 44.1091 35.1161C44.1134 35.1162 44.1177 35.1163 44.122 35.1164C44.1263 35.1165 44.1305 35.1166 44.1348 35.1166C44.139 35.1167 44.1432 35.1168 44.1474 35.1169C44.1517 35.117 44.1559 35.1171 44.16 35.1172C44.1642 35.1173 44.1684 35.1174 44.1726 35.1174C44.1767 35.1175 44.1809 35.1176 44.185 35.1177C44.1892 35.1178 44.1933 35.1179 44.1974 35.118C44.2015 35.118 44.2056 35.1181 44.2097 35.1182C44.2138 35.1183 44.2178 35.1184 44.2219 35.1185C44.226 35.1186 44.23 35.1186 44.234 35.1187C44.2381 35.1188 44.2421 35.1189 44.2461 35.119C44.2501 35.1191 44.2541 35.1192 44.2581 35.1192C44.2621 35.1193 44.266 35.1194 44.27 35.1195C44.2739 35.1196 44.2779 35.1196 44.2818 35.1197C44.2857 35.1198 44.2896 35.1199 44.2935 35.12C44.2974 35.1201 44.3013 35.1201 44.3052 35.1202C44.3091 35.1203 44.3129 35.1204 44.3168 35.1205C44.3206 35.1205 44.3245 35.1206 44.3283 35.1207C44.3321 35.1208 44.3359 35.1209 44.3397 35.1209C44.3435 35.121 44.3473 35.1211 44.3511 35.1212C44.3549 35.1213 44.3586 35.1213 44.3624 35.1214C44.3661 35.1215 44.3698 35.1216 44.3736 35.1217C44.3773 35.1217 44.381 35.1218 44.3847 35.1219C44.3884 35.122 44.392 35.122 44.3957 35.1221C44.3994 35.1222 44.403 35.1223 44.4067 35.1224C44.4103 35.1224 44.4139 35.1225 44.4175 35.1226C44.4212 35.1227 44.4248 35.1227 44.4283 35.1228C44.4319 35.1229 44.4355 35.123 44.4391 35.123C44.4426 35.1231 44.4462 35.1232 44.4497 35.1233C44.4532 35.1233 44.4568 35.1234 44.4603 35.1235C44.4638 35.1236 44.4673 35.1236 44.4708 35.1237C44.4742 35.1238 44.4777 35.1238 44.4812 35.1239C44.4846 35.124 44.4881 35.1241 44.4915 35.1241C44.4949 35.1242 44.4983 35.1243 44.5017 35.1243C44.5052 35.1244 44.5085 35.1245 44.5119 35.1246C44.5153 35.1246 44.5187 35.1247 44.522 35.1248C44.5254 35.1248 44.5287 35.1249 44.532 35.125C44.5354 35.1251 44.5387 35.1251 44.542 35.1252C44.5453 35.1253 44.5486 35.1253 44.5518 35.1254C44.5551 35.1255 44.5584 35.1255 44.5616 35.1256C44.5649 35.1257 44.5681 35.1257 44.5713 35.1258C44.5745 35.1259 44.5777 35.1259 44.5809 35.126C44.5841 35.1261 44.5873 35.1261 44.5905 35.1262C44.5936 35.1263 44.5968 35.1263 44.5999 35.1264C44.6031 35.1265 44.6062 35.1265 44.6093 35.1266C44.6124 35.1267 44.6155 35.1267 44.6186 35.1268C44.6217 35.1269 44.6248 35.1269 44.6279 35.127C44.6309 35.1271 44.634 35.1271 44.637 35.1272C44.6401 35.1272 44.6431 35.1273 44.6461 35.1274C44.6491 35.1274 44.6521 35.1275 44.6551 35.1276C44.6581 35.1276 44.661 35.1277 44.664 35.1278C44.667 35.1278 44.6699 35.1279 44.6728 35.1279C44.6758 35.128 44.6787 35.1281 44.6816 35.1281C44.6845 35.1282 44.6874 35.1282 44.6903 35.1283C44.6932 35.1284 44.696 35.1284 44.6989 35.1285C44.7017 35.1285 44.7046 35.1286 44.7074 35.1287C44.7102 35.1287 44.713 35.1288 44.7158 35.1288C44.7186 35.1289 44.7214 35.129 44.7242 35.129C44.727 35.1291 44.7297 35.1291 44.7325 35.1292C44.7352 35.1292 44.738 35.1293 44.7407 35.1294C44.7434 35.1294 44.7461 35.1295 44.7488 35.1295C44.7515 35.1296 44.7542 35.1296 44.7569 35.1297C44.7596 35.1298 44.7622 35.1298 44.7649 35.1299C44.7675 35.1299 44.7701 35.13 44.7728 35.13C44.7754 35.1301 44.778 35.1301 44.7806 35.1302C44.7832 35.1303 44.7857 35.1303 44.7883 35.1304C44.7909 35.1304 44.7934 35.1305 44.796 35.1305C44.7985 35.1306 44.801 35.1306 44.8035 35.1307C44.8061 35.1307 44.8086 35.1308 44.811 35.1308C44.8135 35.1309 44.816 35.1309 44.8185 35.131C44.8209 35.131 44.8234 35.1311 44.8258 35.1311C44.8283 35.1312 44.8307 35.1312 44.8331 35.1313C44.8355 35.1313 44.8379 35.1314 44.8403 35.1314C44.8427 35.1315 44.845 35.1315 44.8474 35.1316C44.8497 35.1316 44.8521 35.1317 44.8544 35.1317C44.8567 35.1318 44.8591 35.1318 44.8614 35.1319C44.8637 35.1319 44.866 35.132 44.8682 35.132C44.8705 35.1321 44.8728 35.1321 44.875 35.1322C44.8773 35.1322 44.8795 35.1323 44.8817 35.1323C44.884 35.1324 44.8862 35.1324 44.8884 35.1325C44.8906 35.1325 44.8928 35.1325 44.8949 35.1326C44.8971 35.1326 44.8993 35.1327 44.9014 35.1327C44.9036 35.1328 44.9057 35.1328 44.9078 35.1329C44.9099 35.1329 44.9121 35.133 44.9141 35.133C44.9162 35.133 44.9183 35.1331 44.9204 35.1331C44.9225 35.1332 44.9245 35.1332 44.9266 35.1333C44.9286 35.1333 44.9306 35.1333 44.9326 35.1334C44.9347 35.1334 44.9367 35.1335 44.9387 35.1335C44.9406 35.1336 44.9426 35.1336 44.9446 35.1336C44.9466 35.1337 44.9485 35.1337 44.9504 35.1338C44.9524 35.1338 44.9543 35.1338 44.9562 35.1339C44.9581 35.1339 44.96 35.134 44.9619 35.134C44.9638 35.134 44.9657 35.1341 44.9675 35.1341C44.9694 35.1342 44.9712 35.1342 44.9731 35.1342C44.9749 35.1343 44.9767 35.1343 44.9785 35.1343C44.9803 35.1344 44.9821 35.1344 44.9839 35.1345C44.9857 35.1345 44.9874 35.1345 44.9892 35.1346C44.991 35.1346 44.9927 35.1346 44.9944 35.1347C44.9962 35.1347 44.9979 35.1348 44.9996 35.1348C45.0013 35.1348 45.003 35.1349 45.0046 35.1349C45.0063 35.1349 45.008 35.135 45.0096 35.135C45.0113 35.135 45.0129 35.1351 45.0145 35.1351C45.0162 35.1351 45.0178 35.1352 45.0194 35.1352C45.021 35.1352 45.0226 35.1353 45.0241 35.1353C45.0257 35.1353 45.0273 35.1354 45.0288 35.1354C45.0303 35.1354 45.0319 35.1355 45.0334 35.1355C45.0349 35.1355 45.0364 35.1356 45.0379 35.1356C45.0394 35.1356 45.0409 35.1357 45.0423 35.1357C45.0438 35.1357 45.0453 35.1357 45.0467 35.1358C45.0481 35.1358 45.0496 35.1358 45.051 35.1359C45.0524 35.1359 45.0538 35.1359 45.0552 35.136C45.0566 35.136 45.058 35.136 45.0593 35.136C45.0607 35.1361 45.062 35.1361 45.0634 35.1361C45.0647 35.1362 45.066 35.1362 45.0673 35.1362C45.0686 35.1362 45.0699 35.1363 45.0712 35.1363C45.0725 35.1363 45.0738 35.1363 45.075 35.1364C45.0763 35.1364 45.0775 35.1364 45.0788 35.1365C45.08 35.1365 45.0812 35.1365 45.0824 35.1365C45.0836 35.1366 45.0848 35.1366 45.086 35.1366C45.0872 35.1366 45.0883 35.1367 45.0895 35.1367C45.0906 35.1367 45.0918 35.1367 45.0929 35.1367C45.094 35.1368 45.0951 35.1368 45.0962 35.1368C45.0973 35.1368 45.0984 35.1369 45.0995 35.1369C45.1006 35.1369 45.1016 35.1369 45.1027 35.137C45.1037 35.137 45.1048 35.137 45.1058 35.137C45.1068 35.137 45.1078 35.1371 45.1088 35.1371C45.1098 35.1371 45.1108 35.1371 45.1117 35.1371C45.1127 35.1372 45.1137 35.1372 45.1146 35.1372C45.1156 35.1372 45.1165 35.1372 45.1174 35.1373C45.1183 35.1373 45.1192 35.1373 45.1201 35.1373C45.121 35.1373 45.1219 35.1374 45.1227 35.1374C45.1236 35.1374 45.1245 35.1374 45.1253 35.1374C45.1261 35.1374 45.127 35.1375 45.1278 35.1375C45.1286 35.1375 45.1294 35.1375 45.1302 35.1375C45.131 35.1375 45.1317 35.1376 45.1325 35.1376C45.1332 35.1376 45.134 35.1376 45.1347 35.1376C45.1355 35.1376 45.1362 35.1377 45.1369 35.1377C45.1376 35.1377 45.1383 35.1377 45.139 35.1377C45.1396 35.1377 45.1403 35.1377 45.141 35.1378C45.1416 35.1378 45.1423 35.1378 45.1429 35.1378C45.1435 35.1378 45.1441 35.1378 45.1447 35.1378C45.1453 35.1378 45.1459 35.1379 45.1465 35.1379C45.1471 35.1379 45.1476 35.1379 45.1482 35.1379C45.1487 35.1379 45.1493 35.1379 45.1498 35.1379C45.1503 35.138 45.1508 35.138 45.1513 35.138C45.1518 35.138 45.1523 35.138 45.1528 35.138C45.1533 35.138 45.1537 35.138 45.1542 35.138C45.1546 35.138 45.155 35.1381 45.1555 35.1381C45.1559 35.1381 45.1563 35.1381 45.1567 35.1381C45.1571 35.1381 45.1574 35.1381 45.1578 35.1381C45.1582 35.1381 45.1585 35.1381 45.1589 35.1381C45.1592 35.1381 45.1595 35.1381 45.1599 35.1382C45.1602 35.1382 45.1605 35.1382 45.1608 35.1382C45.1611 35.1382 45.1613 35.1382 45.1616 35.1382C45.1618 35.1382 45.1621 35.1382 45.1623 35.1382C45.1626 35.1382 45.1628 35.1382 45.163 35.1382C45.1632 35.1382 45.1634 35.1382 45.1636 35.1382C45.1638 35.1382 45.1639 35.1382 45.1641 35.1382C45.1643 35.1382 45.1644 35.1382 45.1645 35.1383C45.1647 35.1383 45.1648 35.1383 45.1649 35.1383C45.165 35.1383 45.1651 35.1383 45.1652 35.1383C45.1652 35.1383 45.1653 35.1383 45.1654 35.1383C45.1654 35.1383 45.1654 35.1383 45.1655 35.1383C45.1655 35.1383 45.1655 35.1383 45.176 34.6384ZM34.88 33.9224C29.6029 33.9224 25.5773 34.4984 22.8533 35.6924C21.4856 36.292 20.4219 37.0577 19.6995 38.0077C18.9721 38.9643 18.612 40.0802 18.612 41.3344H19.612C19.612 40.2845 19.9089 39.3845 20.4955 38.613C21.0871 37.8351 21.9944 37.1608 23.2547 36.6083C25.7867 35.4984 29.6451 34.9224 34.88 34.9224V33.9224ZM18.612 41.3344C18.612 42.671 19.1005 43.7932 20.0758 44.6601L20.7402 43.9127C19.9875 43.2436 19.612 42.3978 19.612 41.3344H18.612ZM20.0982 44.6788C21.1343 45.4968 22.608 45.8664 24.44 45.8664V44.8664C22.72 44.8664 21.5057 44.5159 20.7178 43.8939L20.0982 44.6788ZM24.44 45.8664C26.3488 45.8664 28.77 44.997 31.6705 43.3534L31.1775 42.4834C28.318 44.1038 26.0832 44.8664 24.44 44.8664V45.8664ZM30.9909 43.1682L32.0709 45.0402L32.9371 44.5405L31.8571 42.6685L30.9909 43.1682ZM32.1396 44.448C30.6913 45.9898 29.0601 47.2006 27.245 48.0849L27.683 48.9839C29.6119 48.0441 31.3407 46.759 32.8684 45.1327L32.1396 44.448ZM27.245 48.0849C25.4335 48.9674 23.6359 49.4024 21.848 49.4024V50.4024C23.8041 50.4024 25.7505 49.9253 27.683 48.9839L27.245 48.0849ZM21.848 49.4024C20.0993 49.4024 18.6136 48.8242 17.3642 47.664L16.6838 48.3968C18.1224 49.7326 19.8527 50.4024 21.848 50.4024V49.4024ZM17.3642 47.664C16.1245 46.5128 15.508 45.0866 15.508 43.3504H14.508C14.508 45.3582 15.2355 47.052 16.6838 48.3968L17.3642 47.664ZM15.508 43.3504C15.508 39.7714 17.4216 36.5957 21.4131 33.8251L20.8429 33.0036C16.6744 35.897 14.508 39.3454 14.508 43.3504H15.508ZM21.4109 33.8267C25.4284 31.0705 30.886 29.6664 37.832 29.6664V28.6664C30.762 28.6664 25.0836 30.0943 20.8451 33.0021L21.4109 33.8267ZM37.832 29.6664C37.8317 29.6664 37.8333 29.6664 37.8374 29.6665C37.8414 29.6666 37.8468 29.6667 37.8537 29.6669C37.8676 29.6674 37.8859 29.6682 37.9091 29.6692C37.9554 29.6714 38.0175 29.6746 38.0962 29.6791C38.2535 29.688 38.4726 29.7014 38.7542 29.7194C39.3171 29.7553 40.1262 29.8092 41.182 29.8812L41.25 28.8835C39.1551 28.7407 37.9985 28.6664 37.832 28.6664V29.6664ZM41.1825 29.8813C48.3348 30.3613 53.4376 30.6024 56.48 30.6024V29.6024C53.4744 29.6024 48.4013 29.3635 41.2495 28.8835L41.1825 29.8813ZM100.187 67.1104L100.485 66.7083L100.175 66.4797L99.875 66.72L100.187 67.1104ZM101.843 68.3344L102.296 68.5458L102.469 68.1753L102.141 67.9323L101.843 68.3344ZM98.0994 72.4384L97.8097 72.0308L97.8046 72.0345L98.0994 72.4384ZM90.0354 64.9504L90.5035 65.1259L89.6771 64.6016L90.0354 64.9504ZM87.3714 67.6864L87.7282 68.0367L87.7296 68.0352L87.3714 67.6864ZM80.6034 73.0144L80.3888 72.5627L80.3844 72.5649L80.6034 73.0144ZM70.8834 72.8704L70.505 73.1972L70.5129 73.2064L70.5213 73.2152L70.8834 72.8704ZM73.4034 58.6144L73.7949 58.9253L73.7971 58.9225L73.4034 58.6144ZM83.3394 50.5504L83.1115 50.1053L83.3394 50.5504ZM95.4354 47.3824L95.9345 47.3521L95.9056 46.8768L95.4294 46.8824L95.4354 47.3824ZM95.5794 49.7584L95.6841 50.2473L96.1045 50.1572L96.0785 49.7281L95.5794 49.7584ZM92.5554 50.4064L92.4506 49.9175L92.4481 49.918L92.5554 50.4064ZM80.9634 56.1664L80.638 55.7867L80.6353 55.7891L80.9634 56.1664ZM87.4434 64.5184L87.0981 64.1567L87.4434 64.5184ZM95.3634 53.8624L95.6191 53.4327L95.1632 53.1614L94.9193 53.6325L95.3634 53.8624ZM98.3874 55.6624L98.8353 55.8846L99.0411 55.4696L98.6431 55.2327L98.3874 55.6624ZM94.5714 68.8384L94.1997 69.1729L94.2173 69.1924L94.2369 69.21L94.5714 68.8384ZM96.8754 69.4144L97.0335 69.8887L96.8754 69.4144ZM97.3074 69.2704L97.4655 69.7447L97.529 69.7236L97.5847 69.6864L97.3074 69.2704ZM97.8114 68.9104L97.5541 68.4816L97.532 68.4949L97.5114 68.5104L97.8114 68.9104ZM98.3874 68.4784L98.0874 68.0784L98.059 68.0997L98.0338 68.1248L98.3874 68.4784ZM99.2514 67.8304L98.9514 67.4304L99.2514 67.8304ZM99.8902 67.5125L101.546 68.7365L102.141 67.9323L100.485 66.7083L99.8902 67.5125ZM101.39 68.1229C100.767 69.4589 99.5905 70.7656 97.8098 72.0308L98.389 72.846C100.256 71.5192 101.576 70.0898 102.296 68.5458L101.39 68.1229ZM97.8046 72.0345C96.0753 73.2965 94.5457 73.8824 93.2034 73.8824V74.8824C94.8371 74.8824 96.5715 74.1723 98.3941 72.8423L97.8046 72.0345ZM93.2034 73.8824C91.8709 73.8824 90.9619 73.5336 90.3796 72.9217C89.7929 72.3052 89.4554 71.3353 89.4554 69.9184H88.4554C88.4554 71.4774 88.8259 72.7396 89.6552 73.6111C90.4889 74.4872 91.7038 74.8824 93.2034 74.8824V73.8824ZM89.4554 69.9184C89.4554 68.6076 89.7956 67.0139 90.5035 65.1259L89.5672 64.7748C88.8352 66.7269 88.4554 68.4452 88.4554 69.9184H89.4554ZM89.6771 64.6016L87.0131 67.3376L87.7296 68.0352L90.3936 65.2992L89.6771 64.6016ZM87.0146 67.3361C84.4379 69.9605 82.2305 71.688 80.3888 72.5627L80.8179 73.466C82.8162 72.5168 85.1208 70.6923 87.7282 68.0367L87.0146 67.3361ZM80.3844 72.5649C78.5709 73.4484 76.7974 73.8824 75.0594 73.8824V74.8824C76.9693 74.8824 78.8918 74.4044 80.8224 73.4639L80.3844 72.5649ZM75.0594 73.8824C73.3277 73.8824 72.0843 73.4063 71.2454 72.5256L70.5213 73.2152C71.6025 74.3505 73.143 74.8824 75.0594 74.8824V73.8824ZM71.2618 72.5436C70.4497 71.6033 70.0154 70.2919 70.0154 68.5504H69.0154C69.0154 70.4568 69.4931 72.0255 70.505 73.1972L71.2618 72.5436ZM70.0154 68.5504C70.0154 65.3283 71.2558 62.1227 73.7949 58.9253L73.0118 58.3034C70.3669 61.6341 69.0154 65.0525 69.0154 68.5504H70.0154ZM73.7971 58.9225C76.341 55.672 79.5947 53.029 83.5672 50.9955L83.1115 50.1053C79.02 52.1998 75.6497 54.9328 73.0096 58.3062L73.7971 58.9225ZM83.5672 50.9955C87.539 48.9623 91.4956 47.9293 95.4413 47.8823L95.4294 46.8824C91.3111 46.9314 87.2037 48.0105 83.1115 50.1053L83.5672 50.9955ZM94.9363 47.4126L95.0803 49.7886L96.0785 49.7281L95.9345 47.3521L94.9363 47.4126ZM95.4746 49.2695L92.4506 49.9175L92.6601 50.8953L95.6841 50.2473L95.4746 49.2695ZM92.4481 49.918C88.0004 50.8955 84.0613 52.8525 80.638 55.7868L81.2888 56.546C84.5855 53.7203 88.3744 51.8372 92.6627 50.8947L92.4481 49.918ZM80.6353 55.7891C77.2715 58.7141 75.4954 61.7198 75.4954 64.8064H76.4954C76.4954 62.1329 78.0312 59.3787 81.2915 56.5437L80.6353 55.7891ZM75.4954 64.8064C75.4954 66.2773 75.7925 67.4733 76.4715 68.3079C77.1666 69.1623 78.1919 69.5544 79.4514 69.5544V68.5544C78.4068 68.5544 77.7041 68.2384 77.2472 67.6768C76.7743 67.0955 76.4954 66.1675 76.4954 64.8064H75.4954ZM79.4514 69.5544C81.8204 69.5544 84.6094 67.9147 87.7886 64.8801L87.0981 64.1567C83.9413 67.17 81.4024 68.5544 79.4514 68.5544V69.5544ZM87.7886 64.8801C90.9985 61.816 93.6712 58.2189 95.8074 54.0922L94.9193 53.6325C92.8315 57.6659 90.2242 61.1727 87.0981 64.1567L87.7886 64.8801ZM95.1076 54.292L98.1316 56.092L98.6431 55.2327L95.6191 53.4327L95.1076 54.292ZM97.9394 55.4402C96.4484 58.4463 95.3252 60.9151 94.5735 62.8427C93.8311 64.7467 93.4234 66.1893 93.4234 67.1104H94.4234C94.4234 66.3995 94.7597 65.118 95.5052 63.206C96.2416 61.3176 97.3503 58.8785 98.8353 55.8846L97.9394 55.4402ZM93.4234 67.1104C93.4234 67.9004 93.6815 68.597 94.1997 69.1729L94.943 68.5039C94.5973 68.1197 94.4234 67.6644 94.4234 67.1104H93.4234ZM94.2369 69.21C94.7644 69.6848 95.335 69.9864 95.9394 69.9864V68.9864C95.6797 68.9864 95.3383 68.8559 94.9059 68.4667L94.2369 69.21ZM95.9394 69.9864C96.1862 69.9864 96.3981 69.9803 96.5717 69.9669C96.735 69.9544 96.9002 69.9331 97.0335 69.8887L96.7173 68.94C96.7184 68.9397 96.7143 68.9411 96.7034 68.9435C96.6927 68.9459 96.6778 68.9489 96.6579 68.952C96.6177 68.9583 96.5641 68.9645 96.495 68.9699C96.3566 68.9805 96.1725 68.9864 95.9394 68.9864V69.9864ZM97.0335 69.8887C97.1775 69.8407 97.3215 69.7927 97.4655 69.7447L97.1493 68.796C97.0053 68.844 96.8613 68.892 96.7173 68.94L97.0335 69.8887ZM97.5847 69.6864C97.7387 69.5838 97.9146 69.458 98.1114 69.3104L97.5114 68.5104C97.3242 68.6508 97.164 68.765 97.03 68.8544L97.5847 69.6864ZM98.0686 69.3391C98.3316 69.1813 98.5595 69.0133 98.7409 68.8319L98.0338 68.1248C97.9272 68.2314 97.7711 68.3514 97.5541 68.4816L98.0686 69.3391ZM98.6874 68.8784C98.8794 68.7344 99.1674 68.5184 99.5514 68.2304L98.9514 67.4304C98.5674 67.7184 98.2794 67.9344 98.0874 68.0784L98.6874 68.8784ZM99.5514 68.2304C99.9375 67.9408 100.254 67.6973 100.5 67.5008L99.875 66.72C99.6407 66.9074 99.3332 67.144 98.9514 67.4304L99.5514 68.2304ZM113.166 51.7744L113.011 51.299L112.736 51.3885L112.677 51.6714L113.166 51.7744ZM111.366 63.7264L110.866 63.7168V63.7264H111.366ZM120.006 66.1024L120.374 66.4411L120.006 66.1024ZM116.334 56.9584L115.87 57.1441L116.048 57.5889L116.5 57.4301L116.334 56.9584ZM115.47 54.7984L115.182 54.3894L114.859 54.6169L115.006 54.9841L115.47 54.7984ZM122.814 68.4064L122.425 68.0918L122.425 68.0923L122.814 68.4064ZM109.062 52.9264L109.548 53.045L109.771 52.1306L108.888 52.4575L109.062 52.9264ZM103.23 55.0864L102.73 55.1072L102.759 55.794L103.404 55.5553L103.23 55.0864ZM103.158 53.3584L102.901 52.9296L102.646 53.0824L102.658 53.3792L103.158 53.3584ZM109.71 50.7664L109.884 51.2353L110.154 51.1349L110.203 50.8502L109.71 50.7664ZM116.478 30.6064L116.878 30.9064L116.88 30.904L116.478 30.6064ZM132.246 26.7184L132.613 26.3787V26.3787L132.246 26.7184ZM128.358 43.3504L128.7 43.7153L128.702 43.713L128.358 43.3504ZM113.598 49.6144L113.109 49.5121L112.906 50.483L113.807 50.0687L113.598 49.6144ZM123.966 42.7024L123.616 42.3457L123.966 42.7024ZM118.566 35.7184L118.977 36.0037L118.566 35.7184ZM112.677 51.6714C111.524 57.1459 110.915 61.1698 110.866 63.7168L111.866 63.736C111.913 61.2909 112.504 57.3469 113.655 51.8774L112.677 51.6714ZM110.866 63.7264C110.866 65.4621 111.114 66.8453 111.671 67.8104C112.252 68.8171 113.155 69.3384 114.318 69.3384V68.3384C113.513 68.3384 112.94 68.0076 112.537 67.3103C112.11 66.5714 111.866 65.3986 111.866 63.7264H110.866ZM114.318 69.3384C116.594 69.3384 118.617 68.3484 120.374 66.4411L119.638 65.7636C118.035 67.5044 116.266 68.3384 114.318 68.3384V69.3384ZM120.374 66.4411C122.138 64.5261 123.026 62.2697 123.026 59.6944H122.026C122.026 62.0151 121.234 64.0306 119.638 65.7636L120.374 66.4411ZM123.026 59.6944C123.026 58.4228 122.792 57.3781 122.243 56.6416C121.674 55.8775 120.825 55.5224 119.79 55.5224V56.5224C120.579 56.5224 121.098 56.7792 121.441 57.2391C121.804 57.7266 122.026 58.518 122.026 59.6944H123.026ZM119.79 55.5224C119.454 55.5224 118.978 55.617 118.399 55.7738C117.807 55.9342 117.062 56.1726 116.168 56.4867L116.5 57.4301C117.382 57.1201 118.101 56.8905 118.661 56.739C119.234 56.5838 119.598 56.5224 119.79 56.5224V55.5224ZM116.798 56.7727L115.934 54.6127L115.006 54.9841L115.87 57.1441L116.798 56.7727ZM115.758 55.2074C118.821 53.0533 121.134 52.0584 122.742 52.0584V51.0584C120.798 51.0584 118.263 52.2235 115.182 54.3894L115.758 55.2074ZM122.742 52.0584C124.321 52.0584 125.413 52.4528 126.114 53.1539C126.816 53.8551 127.21 54.9475 127.21 56.5264H128.21C128.21 54.7933 127.776 53.4017 126.821 52.4468C125.867 51.492 124.475 51.0584 122.742 51.0584V52.0584ZM127.21 56.5264C127.21 60.2666 125.641 64.119 122.425 68.0918L123.203 68.721C126.514 64.6298 128.21 60.5622 128.21 56.5264H127.21ZM122.425 68.0923C119.26 72.0127 116.005 73.8824 112.662 73.8824V74.8824C116.423 74.8824 119.936 72.7681 123.203 68.7204L122.425 68.0923ZM112.662 73.8824C110.854 73.8824 109.562 73.2452 108.698 72.0081C107.811 70.7384 107.33 68.7716 107.33 66.0304H106.33C106.33 68.8572 106.821 71.0664 107.878 72.5806C108.958 74.1276 110.582 74.8824 112.662 74.8824V73.8824ZM107.33 66.0304C107.33 63.4565 108.06 59.1406 109.548 53.045L108.576 52.8078C107.088 58.9042 106.33 63.3242 106.33 66.0304H107.33ZM108.888 52.4575L103.056 54.6175L103.404 55.5553L109.236 53.3953L108.888 52.4575ZM103.73 55.0656L103.658 53.3376L102.658 53.3792L102.73 55.1072L103.73 55.0656ZM103.415 53.7871C103.612 53.6692 104.232 53.3975 105.34 52.9593C106.427 52.5293 107.941 51.9548 109.884 51.2353L109.536 50.2975C107.591 51.018 106.069 51.5955 104.972 52.0294C103.896 52.4553 103.184 52.7596 102.901 52.9296L103.415 53.7871ZM110.203 50.8502C111.833 41.2638 114.074 34.6454 116.878 30.9064L116.078 30.3064C113.122 34.2474 110.851 41.069 109.217 50.6826L110.203 50.8502ZM116.88 30.904C119.676 27.1292 123.181 25.2744 127.422 25.2744V24.2744C122.831 24.2744 119.04 26.3076 116.076 30.3088L116.88 30.904ZM127.422 25.2744C129.32 25.2744 130.787 25.8792 131.879 27.0581L132.613 26.3787C131.304 24.9656 129.556 24.2744 127.422 24.2744V25.2744ZM131.879 27.0581C132.979 28.2463 133.546 29.7977 133.546 31.7584H134.546C134.546 29.5911 133.913 27.7825 132.613 26.3787L131.879 27.0581ZM133.546 31.7584C133.546 35.7148 131.734 39.4555 128.014 42.9878L128.702 43.713C132.566 40.0453 134.546 36.058 134.546 31.7584H133.546ZM128.016 42.9855C124.29 46.4753 119.296 49.2515 113.011 51.299L113.321 52.2498C119.707 50.1693 124.841 47.3294 128.7 43.7153L128.016 42.9855ZM113.807 50.0687C118.025 48.1292 121.532 45.7947 124.316 43.0591L123.616 42.3457C120.928 44.9861 117.523 47.2596 113.389 49.1601L113.807 50.0687ZM124.316 43.0591C127.082 40.3415 128.57 37.7708 128.57 35.3584H127.57C127.57 37.362 126.321 39.6872 123.616 42.3457L124.316 43.0591ZM128.57 35.3584C128.57 34.1027 128.2 33.0373 127.427 32.2092L126.696 32.8915C127.268 33.5034 127.57 34.3101 127.57 35.3584H128.57ZM127.427 32.2092C126.658 31.3852 125.685 30.9704 124.542 30.9704V31.9704C125.415 31.9704 126.121 32.2755 126.696 32.8915L127.427 32.2092ZM124.542 30.9704C122.273 30.9704 120.151 32.5614 118.155 35.4331L118.977 36.0037C120.917 33.2114 122.779 31.9704 124.542 31.9704V30.9704ZM118.155 35.4331C116.128 38.35 114.456 43.0631 113.109 49.5121L114.087 49.7167C115.428 43.3017 117.068 38.7508 118.977 36.0037L118.155 35.4331ZM161.579 34.7824L161.082 34.7272L160.962 35.8093L161.861 35.1953L161.579 34.7824ZM169.643 29.8864L169.829 30.3506L169.835 30.348L169.842 30.3452L169.643 29.8864ZM179.219 30.9664L179.612 30.6575L179.219 30.9664ZM176.483 51.1264L176.047 50.8818L176.483 51.1264ZM165.683 64.0864L165.996 64.4768L165.998 64.4747L165.683 64.0864ZM150.131 69.1264L150.17 68.6279L149.826 68.6014L149.679 68.9133L150.131 69.1264ZM143.723 80.4304L144.122 80.7316L143.723 80.4304ZM135.155 82.9504L135.55 82.6434L135.155 82.9504ZM140.987 59.5504L141.425 59.7921L141.425 59.791L140.987 59.5504ZM156.035 39.6064L156.372 39.9758L156.485 39.8727L156.521 39.7242L156.035 39.6064ZM157.043 29.3104L156.961 28.8172L156.488 28.8961L156.547 29.3724L157.043 29.3104ZM162.227 28.4464H162.727V27.8562L162.145 27.9532L162.227 28.4464ZM145.091 63.9424L145.315 63.4952L144.84 63.258L144.632 63.7454L145.091 63.9424ZM147.107 64.9504L146.884 65.3976L147.326 65.619L147.552 65.1783L147.107 64.9504ZM154.739 45.0784L155.221 45.2137L154.349 44.766L154.739 45.0784ZM143.867 61.9264L143.419 61.7043L143.867 61.9264ZM142.787 73.8064L143.212 74.0704L143.215 74.0653L142.787 73.8064ZM145.595 68.2624L146.058 68.4522L146.24 68.0091L145.805 67.8084L145.595 68.2624ZM143.795 66.9664L143.336 66.7694L143.202 67.0806L143.442 67.3199L143.795 66.9664ZM151.643 65.9584L151.189 65.7493L150.881 66.4189L151.617 66.4577L151.643 65.9584ZM153.011 66.0304L152.985 66.5297L152.998 66.5304H153.011V66.0304ZM166.115 58.6864L166.499 59.0065L166.503 59.0019L166.115 58.6864ZM171.947 48.9664L171.491 48.7622L171.489 48.7672L171.947 48.9664ZM173.243 36.3664L172.868 36.6972L172.874 36.7032L172.879 36.7091L173.243 36.3664ZM160.859 39.0304L160.582 38.6144L160.393 38.7399L160.364 38.9643L160.859 39.0304ZM161.861 35.1953C165.806 32.5014 168.449 30.9027 169.829 30.3506L169.457 29.4221C167.958 30.0221 165.225 31.6874 161.297 34.3695L161.861 35.1953ZM169.842 30.3452C171.207 29.7537 172.817 29.4504 174.683 29.4504V28.4504C172.71 28.4504 170.959 28.7711 169.444 29.4276L169.842 30.3452ZM174.683 29.4504C176.524 29.4504 177.88 30.0712 178.826 31.2753L179.612 30.6575C178.446 29.1736 176.778 28.4504 174.683 28.4504V29.4504ZM178.826 31.2753C179.787 32.4987 180.303 34.2926 180.303 36.7264H181.303C181.303 34.1682 180.763 32.122 179.612 30.6575L178.826 31.2753ZM180.303 36.7264C180.303 41.0817 178.898 45.7975 176.047 50.8818L176.919 51.3709C179.828 46.1833 181.303 41.2991 181.303 36.7264H180.303ZM176.047 50.8818C173.196 55.966 169.636 60.2362 165.368 63.6981L165.998 64.4747C170.37 60.9286 174.01 56.5588 176.919 51.3709L176.047 50.8818ZM165.371 63.6959C161.101 67.1114 157.129 68.7704 153.443 68.7704V69.7704C157.437 69.7704 161.625 67.9733 165.996 64.4768L165.371 63.6959ZM153.443 68.7704C152.499 68.7704 151.408 68.7232 150.17 68.6279L150.093 69.6249C151.35 69.7216 152.467 69.7704 153.443 69.7704V68.7704ZM149.679 68.9133C147.333 73.8932 145.214 77.6255 143.324 80.1292L144.122 80.7316C146.073 78.1473 148.226 74.3436 150.583 69.3395L149.679 68.9133ZM143.324 80.1292C141.437 82.6299 139.646 83.7464 137.963 83.7464V84.7464C140.12 84.7464 142.17 83.3188 144.122 80.7316L143.324 80.1292ZM137.963 83.7464C136.9 83.7464 136.117 83.3728 135.55 82.6434L134.761 83.2574C135.537 84.256 136.626 84.7464 137.963 84.7464V83.7464ZM135.55 82.6434C134.969 81.8965 134.647 80.8191 134.647 79.3504H133.647C133.647 80.9537 133.997 82.2763 134.761 83.2574L135.55 82.6434ZM134.647 79.3504C134.647 74.5376 136.875 68.03 141.425 59.7921L140.55 59.3086C135.979 67.5828 133.647 74.2752 133.647 79.3504H134.647ZM141.425 59.791C145.966 51.5225 150.95 44.922 156.372 39.9758L155.698 39.237C150.176 44.2747 145.128 50.9703 140.549 59.3097L141.425 59.791ZM156.521 39.7242C157.29 36.5536 157.687 34.1991 157.687 32.6944H156.687C156.687 34.0697 156.317 36.3232 155.549 39.4886L156.521 39.7242ZM157.687 32.6944C157.687 31.2008 157.639 30.0479 157.539 29.2484L156.547 29.3724C156.639 30.1089 156.687 31.2119 156.687 32.6944H157.687ZM157.125 29.8036L162.309 28.9396L162.145 27.9532L156.961 28.8172L157.125 29.8036ZM161.727 28.4464C161.727 28.5816 161.677 29.1589 161.568 30.2315C161.46 31.2853 161.298 32.7836 161.082 34.7272L162.076 34.8376C162.292 32.8931 162.454 31.3914 162.563 30.3333C162.669 29.2939 162.727 28.6471 162.727 28.4464H161.727ZM144.868 64.3896L146.884 65.3976L147.331 64.5032L145.315 63.4952L144.868 64.3896ZM147.552 65.1783C150.593 59.2407 153.149 52.585 155.221 45.2137L154.258 44.9431C152.202 52.2597 149.669 58.8521 146.662 64.7224L147.552 65.1783ZM154.349 44.766C149.913 50.311 146.269 55.957 143.419 61.7043L144.315 62.1485C147.13 56.4718 150.734 50.8858 155.13 45.3907L154.349 44.766ZM143.419 61.7043C140.582 67.4265 139.119 71.9072 139.119 75.1024H140.119C140.119 72.1536 141.488 67.8503 144.315 62.1485L143.419 61.7043ZM139.119 75.1024C139.119 75.5949 139.194 76.0496 139.412 76.3954C139.655 76.7799 140.038 76.9704 140.483 76.9704V75.9704C140.353 75.9704 140.303 75.9329 140.258 75.8614C140.188 75.7512 140.119 75.5219 140.119 75.1024H139.119ZM140.483 76.9704C140.752 76.9704 140.988 76.839 141.168 76.7058C141.359 76.5642 141.557 76.3674 141.761 76.1315C142.171 75.6581 142.655 74.9663 143.212 74.0704L142.363 73.5424C141.815 74.4225 141.364 75.0627 141.005 75.4773C140.825 75.6854 140.681 75.8216 140.573 75.902C140.453 75.9907 140.431 75.9704 140.483 75.9704V76.9704ZM143.215 74.0653C144.332 72.2204 145.279 70.3493 146.058 68.4522L145.133 68.0726C144.375 69.9195 143.451 71.7444 142.359 73.5475L143.215 74.0653ZM145.805 67.8084C145.243 67.5492 144.691 67.1547 144.149 66.6128L143.442 67.3199C144.052 67.9301 144.699 68.3995 145.386 68.7164L145.805 67.8084ZM144.255 67.1633L145.551 64.1393L144.632 63.7454L143.336 66.7694L144.255 67.1633ZM151.617 66.4577L152.985 66.5297L153.037 65.5311L151.669 65.4591L151.617 66.4577ZM153.011 66.5304C157.865 66.5304 162.361 63.9721 166.499 59.0065L165.731 58.3663C161.709 63.1926 157.469 65.5304 153.011 65.5304V66.5304ZM166.503 59.0019C168.838 56.1315 170.805 52.8517 172.406 49.1655L171.489 48.7672C169.921 52.3771 168 55.5772 165.727 58.3708L166.503 59.0019ZM172.404 49.1706C174.05 45.4911 174.895 42.3215 174.895 39.6784H173.895C173.895 42.1233 173.109 45.1457 171.491 48.7622L172.404 49.1706ZM174.895 39.6784C174.895 38.1914 174.482 36.9536 173.607 36.0237L172.879 36.7091C173.54 37.4112 173.895 38.3814 173.895 39.6784H174.895ZM173.618 36.0356C172.785 35.0914 171.629 34.6424 170.219 34.6424V35.6424C171.402 35.6424 172.261 36.0094 172.868 36.6972L173.618 36.0356ZM170.219 34.6424C167.711 34.6424 164.485 36.0124 160.582 38.6144L161.137 39.4464C165.01 36.8644 168.024 35.6424 170.219 35.6424V34.6424ZM160.364 38.9643C159.51 45.368 156.464 54.2887 151.189 65.7493L152.097 66.1674C157.383 54.684 160.481 45.6528 161.355 39.0965L160.364 38.9643ZM196.694 52.9984L197.122 52.7397L196.92 52.4057L196.547 52.5205L196.694 52.9984ZM194.534 70.2784L194.908 70.6106L194.911 70.6076L194.534 70.2784ZM178.478 72.4384L178.114 72.7811L178.119 72.7866L178.125 72.7919L178.478 72.4384ZM181.502 53.5024L181.858 53.8536L181.861 53.8512L181.502 53.5024ZM195.182 48.1024L195.68 48.0571L195.645 47.6633L195.253 47.6074L195.182 48.1024ZM195.398 50.4784V50.9784H195.946L195.896 50.4331L195.398 50.4784ZM185.822 53.7904L186.15 54.168L185.822 53.7904ZM183.518 67.3264L183.124 67.6334L183.129 67.6406L183.518 67.3264ZM192.59 66.6064L193.006 66.8837L192.59 66.6064ZM192.95 54.1504L192.803 53.6725L192.251 53.8426L192.499 54.3649L192.95 54.1504ZM196.267 53.2571C197.466 55.2402 198.066 57.4303 198.066 59.8384H199.066C199.066 57.2545 198.419 54.8845 197.122 52.7397L196.267 53.2571ZM198.066 59.8384C198.066 63.5988 196.771 66.9633 194.158 69.9491L194.911 70.6076C197.674 67.4495 199.066 63.8539 199.066 59.8384H198.066ZM194.161 69.9462C191.556 72.8765 188.519 74.3144 185.03 74.3144V75.3144C188.838 75.3144 192.137 73.7283 194.908 70.6106L194.161 69.9462ZM185.03 74.3144C182.345 74.3144 180.301 73.5534 178.832 72.0848L178.125 72.7919C179.824 74.4913 182.148 75.3144 185.03 75.3144V74.3144ZM178.842 72.0957C177.415 70.5791 176.674 68.482 176.674 65.7424H175.674C175.674 68.6667 176.47 71.0336 178.114 72.7811L178.842 72.0957ZM176.674 65.7424C176.674 61.3287 178.388 57.3712 181.858 53.8536L181.146 53.1512C177.513 56.8336 175.674 61.036 175.674 65.7424H176.674ZM181.861 53.8512C185.334 50.2838 189.194 48.5304 193.454 48.5304V47.5304C188.883 47.5304 184.775 49.425 181.144 53.1536L181.861 53.8512ZM193.454 48.5304C194.27 48.5304 194.814 48.5549 195.112 48.5974L195.253 47.6074C194.878 47.5539 194.27 47.5304 193.454 47.5304V48.5304ZM194.684 48.1477L194.9 50.5237L195.896 50.4331L195.68 48.0571L194.684 48.1477ZM195.398 49.9784C191.456 49.9784 188.142 51.1148 185.495 53.4128L186.15 54.168C188.59 52.0499 191.661 50.9784 195.398 50.9784V49.9784ZM185.495 53.4128C182.838 55.7185 181.506 58.6898 181.506 62.2864H182.506C182.506 58.971 183.719 56.2782 186.15 54.168L185.495 53.4128ZM181.506 62.2864C181.506 64.4325 182.031 66.2291 183.124 67.6334L183.913 67.0194C182.989 65.8317 182.506 64.2683 182.506 62.2864H181.506ZM183.129 67.6406C184.251 69.0296 185.872 69.6984 187.91 69.6984V68.6984C186.108 68.6984 184.801 68.1192 183.907 67.0122L183.129 67.6406ZM187.91 69.6984C190.056 69.6984 191.768 68.7417 193.006 66.8837L192.174 66.329C191.109 67.9271 189.7 68.6984 187.91 68.6984V69.6984ZM193.006 66.8837C194.219 65.0647 194.818 62.9499 194.818 60.5584H193.818C193.818 62.7749 193.266 64.692 192.174 66.329L193.006 66.8837ZM194.818 60.5584C194.818 58.1402 194.349 55.9297 193.402 53.9359L192.499 54.3649C193.376 56.211 193.818 58.2726 193.818 60.5584H194.818ZM193.097 54.6283L196.841 53.4763L196.547 52.5205L192.803 53.6725L193.097 54.6283Z" fill="#C5D7D9"/>
</svg>
