<svg width="44" height="44" viewBox="0 0 44 44" fill="none" xmlns="http://www.w3.org/2000/svg">
<circle cx="22" cy="22" r="22" fill="white"/>
<path d="M14.4463 37.584C14.4463 37.272 14.3863 37.116 14.2663 37.116L13.4383 37.512C13.4383 37.344 13.3423 37.224 13.1503 37.152L12.8623 37.116C12.6703 37.116 12.4303 37.2 12.1423 37.368C12.0943 37.248 12.0343 37.128 11.9623 37.008C11.8903 36.888 11.8303 36.78 11.7823 36.684C11.4703 36.084 11.1583 35.424 10.8463 34.704C10.5583 33.96 10.2823 33.252 10.0183 32.58C9.77833 31.908 9.58633 31.38 9.44233 30.996C9.34633 30.684 9.23833 30.216 9.11833 29.592C8.99833 28.968 8.87833 28.176 8.75833 27.216C9.02233 27.384 9.22633 27.468 9.37033 27.468C9.53833 27.468 9.69433 27.216 9.83833 26.712C9.91033 26.808 10.0423 26.856 10.2343 26.856C10.3783 26.856 10.4863 26.808 10.5583 26.712L11.1343 25.848L11.7823 26.064H11.8183C11.8663 26.064 11.9143 26.04 11.9623 25.992C12.0103 25.944 12.0823 25.896 12.1783 25.848C12.3703 25.728 12.5143 25.668 12.6103 25.668L12.7183 25.704C13.3183 25.992 13.7023 26.52 13.8703 27.288C14.3023 29.112 14.7343 30.024 15.1663 30.024C15.5983 30.024 16.1023 29.568 16.6783 28.656C16.9663 28.2 17.2543 27.672 17.5423 27.072C17.8543 26.472 18.1663 25.8 18.4783 25.056C18.5263 25.344 18.5743 25.488 18.6223 25.488C18.7423 25.488 18.9463 25.188 19.2343 24.588C19.5463 23.988 20.0383 23.16 20.7103 22.104C21.0943 21.456 21.5743 20.724 22.1503 19.908C22.7503 19.092 23.3863 18.252 24.0583 17.388C24.7303 16.524 25.3783 15.708 26.0023 14.94C26.6503 14.172 27.2263 13.512 27.7303 12.96C28.2343 12.408 28.6063 12.048 28.8463 11.88C29.7583 11.256 30.4783 10.656 31.0063 10.08C30.9823 10.248 30.9463 10.404 30.8983 10.548C30.8743 10.668 30.8623 10.752 30.8623 10.8C30.8623 10.896 30.9103 10.944 31.0063 10.944L32.0143 10.44V10.584C32.0143 10.776 32.0623 10.872 32.1583 10.872C32.2303 10.872 32.3743 10.764 32.5903 10.548C32.8063 10.332 32.9263 10.176 32.9503 10.08L32.8783 10.584L34.1023 9.864L33.8143 10.512C34.1983 10.248 34.4743 10.116 34.6423 10.116C34.7383 10.116 34.8103 10.176 34.8583 10.296C34.9063 10.392 34.9303 10.488 34.9303 10.584C34.9303 10.728 34.8703 10.896 34.7503 11.088C34.6303 11.28 34.4743 11.508 34.2823 11.772C34.1383 11.964 33.8983 12.252 33.5623 12.636C33.2503 12.996 32.7703 13.536 32.1223 14.256C31.4743 14.952 30.6103 15.924 29.5303 17.172C29.2423 17.484 28.7983 18.036 28.1983 18.828C27.5983 19.596 26.9143 20.496 26.1463 21.528C25.4023 22.536 24.6583 23.556 23.9143 24.588C23.1703 25.62 22.5103 26.556 21.9343 27.396C21.3583 28.212 20.9503 28.824 20.7103 29.232L18.4783 33.012C17.9983 33.828 17.6023 34.5 17.2903 35.028C16.9783 35.532 16.7383 35.88 16.5703 36.072C16.2103 36.504 15.8143 36.888 15.3823 37.224L15.0583 37.044L14.7703 37.224L14.4463 37.584Z" fill="#2A5D68"/>
</svg>
