<svg width="42" height="42" viewBox="0 0 42 42" fill="none" xmlns="http://www.w3.org/2000/svg">
<circle cx="21" cy="21" r="21" fill="#4D76A1"/>
<path d="M15.5469 33.51C15.2669 33.51 15.0369 33.4 14.8569 33.18C14.3369 31.02 13.6269 27.11 12.7269 21.45C11.7269 15.41 11.1169 11.82 10.8969 10.68C10.9769 10.3 11.2469 10.11 11.7069 10.11C12.0469 10.11 12.4669 11.39 12.9669 13.95C13.4869 16.53 13.9969 19.45 14.4969 22.71L15.3069 28.02C15.6269 25.62 15.8769 23.82 16.0569 22.62C16.4369 19.86 16.7169 17.58 16.8969 15.78C17.0769 13.96 17.1669 12.24 17.1669 10.62C17.4669 10.22 17.8269 10.02 18.2469 10.02L18.8769 10.35L18.4269 14.4C18.3269 15.64 18.0769 17.89 17.6769 21.15L17.4069 23.13C17.1869 24.89 16.9669 26.55 16.7469 28.11C16.4469 30.37 16.1669 31.94 15.9069 32.82C15.7869 33.28 15.6669 33.51 15.5469 33.51ZM29.6352 33.69C29.5152 33.69 29.3952 33.67 29.2752 33.63C29.1752 33.61 29.0652 33.6 28.9452 33.6C28.4052 30.54 27.8652 27.98 27.3252 25.92C26.7852 23.86 26.1052 21.92 25.2852 20.1L24.6552 21.27C24.4752 21.61 24.3752 21.91 24.3552 22.17C24.2952 22.77 24.2652 23.21 24.2652 23.49C24.2652 24.09 24.2952 25.01 24.3552 26.25C24.4152 27.47 24.4452 28.4 24.4452 29.04V31.5C24.4452 32.56 24.1052 33.09 23.4252 33.09C22.8452 33.09 22.5552 32.53 22.5552 31.41C22.5552 30.53 22.6152 29.18 22.7352 27.36C22.8752 25.68 22.9452 24.34 22.9452 23.34L22.9752 20.76V17.64C22.9752 16.54 22.9052 15.39 22.7652 14.19C22.6252 12.95 22.5552 12.01 22.5552 11.37C22.5552 11.11 22.6352 10.89 22.7952 10.71C22.9552 10.53 23.1552 10.44 23.3952 10.44C24.1352 10.44 24.5052 11.25 24.5052 12.87L24.3852 19.02L24.9552 17.55C25.6152 15.87 26.2952 14.21 26.9952 12.57C27.3952 11.67 27.7552 10.96 28.0752 10.44C28.4152 9.9 28.6852 9.63 28.8852 9.63C29.1052 9.63 29.2952 9.71 29.4552 9.87C29.6352 10.01 29.7252 10.19 29.7252 10.41C29.7252 10.61 29.1852 11.85 28.1052 14.13C27.0452 16.31 26.4252 17.76 26.2452 18.48V19.02C26.5452 19.78 27.3452 22.22 28.6452 26.34C29.9452 30.44 30.5952 32.61 30.5952 32.85C30.5952 33.09 30.4952 33.29 30.2952 33.45C30.1152 33.61 29.8952 33.69 29.6352 33.69Z" fill="white"/>
</svg>
