<svg width="27" height="29" viewBox="0 0 27 29" fill="none" xmlns="http://www.w3.org/2000/svg">
<path d="M6.44633 28.584C6.44633 28.272 6.38633 28.116 6.26633 28.116L5.43833 28.512C5.43833 28.344 5.34233 28.224 5.15033 28.152L4.86233 28.116C4.67033 28.116 4.43033 28.2 4.14233 28.368C4.09433 28.248 4.03433 28.128 3.96233 28.008C3.89033 27.888 3.83033 27.78 3.78233 27.684C3.47033 27.084 3.15833 26.424 2.84633 25.704C2.55833 24.96 2.28233 24.252 2.01833 23.58C1.77833 22.908 1.58633 22.38 1.44233 21.996C1.34633 21.684 1.23833 21.216 1.11833 20.592C0.998325 19.968 0.878325 19.176 0.758325 18.216C1.02233 18.384 1.22633 18.468 1.37033 18.468C1.53833 18.468 1.69433 18.216 1.83833 17.712C1.91033 17.808 2.04233 17.856 2.23433 17.856C2.37833 17.856 2.48633 17.808 2.55833 17.712L3.13433 16.848L3.78233 17.064H3.81833C3.86633 17.064 3.91433 17.04 3.96233 16.992C4.01033 16.944 4.08233 16.896 4.17833 16.848C4.37033 16.728 4.51433 16.668 4.61033 16.668L4.71833 16.704C5.31833 16.992 5.70233 17.52 5.87033 18.288C6.30233 20.112 6.73433 21.024 7.16633 21.024C7.59833 21.024 8.10233 20.568 8.67833 19.656C8.96633 19.2 9.25433 18.672 9.54233 18.072C9.85433 17.472 10.1663 16.8 10.4783 16.056C10.5263 16.344 10.5743 16.488 10.6223 16.488C10.7423 16.488 10.9463 16.188 11.2343 15.588C11.5463 14.988 12.0383 14.16 12.7103 13.104C13.0943 12.456 13.5743 11.724 14.1503 10.908C14.7503 10.092 15.3863 9.252 16.0583 8.388C16.7303 7.524 17.3783 6.708 18.0023 5.94C18.6503 5.172 19.2263 4.512 19.7303 3.96C20.2343 3.408 20.6063 3.048 20.8463 2.88C21.7583 2.256 22.4783 1.656 23.0063 1.08C22.9823 1.248 22.9463 1.404 22.8983 1.548C22.8743 1.668 22.8623 1.752 22.8623 1.8C22.8623 1.896 22.9103 1.944 23.0063 1.944L24.0143 1.44V1.584C24.0143 1.776 24.0623 1.872 24.1583 1.872C24.2303 1.872 24.3743 1.764 24.5903 1.548C24.8063 1.332 24.9263 1.176 24.9503 1.08L24.8783 1.584L26.1023 0.864L25.8143 1.512C26.1983 1.248 26.4743 1.116 26.6423 1.116C26.7383 1.116 26.8103 1.176 26.8583 1.296C26.9063 1.392 26.9303 1.488 26.9303 1.584C26.9303 1.728 26.8703 1.896 26.7503 2.088C26.6303 2.28 26.4743 2.508 26.2823 2.772C26.1383 2.964 25.8983 3.252 25.5623 3.636C25.2503 3.996 24.7703 4.536 24.1223 5.256C23.4743 5.952 22.6103 6.924 21.5303 8.172C21.2423 8.484 20.7983 9.036 20.1983 9.828C19.5983 10.596 18.9143 11.496 18.1463 12.528C17.4023 13.536 16.6583 14.556 15.9143 15.588C15.1703 16.62 14.5103 17.556 13.9343 18.396C13.3583 19.212 12.9503 19.824 12.7103 20.232L10.4783 24.012C9.99833 24.828 9.60233 25.5 9.29033 26.028C8.97833 26.532 8.73833 26.88 8.57033 27.072C8.21033 27.504 7.81433 27.888 7.38233 28.224L7.05833 28.044L6.77033 28.224L6.44633 28.584Z" fill="#2A5D68"/>
</svg>
